<svg height="28" viewBox="0 0 187 28" width="187" xmlns="http://www.w3.org/2000/svg" xmlns:xlink="http://www.w3.org/1999/xlink"><mask id="a" fill="#fff"><path d="m1.13373.01194118h6.5943v26.82824122h-6.5943z" fill="#fff" fill-rule="evenodd"/></mask><mask id="b" fill="#fff"><path d="m.98753.01194118h6.5552v26.82824122h-6.5552z" fill="#fff" fill-rule="evenodd"/></mask><g fill="#005596" fill-rule="evenodd" transform="translate(0 -1)"><path d="m47.99066 28.5341235h14.4211c1.2682 0 2.1165-.9365294 2.1165-2.2824706v-1.1582941c-.6919.1586471-1.7323.2302941-3.6992.2302941h-4.7464l8.2535-15.94829408h-16.2265v3.15758828h7.2607l-6.919 13.1779411c-.6154 1.1582942-.6885 2.0862942-.4607 2.8232353"/><path d="m33.61376 18.3488118 3.7366 7.2124706c1.0421 2.0760588 1.5045 2.9733529 3.859 2.9733529h5.3193c-.306-.2405294-.5814-.7386471-1.1203-1.7007647l-5.44-10.0374118 6.3665-7.42229409h-5.6661z"/><path d="m1.13373 26.8401824h6.5943v-22.90829416c0-2.37629412-1.7357-3.92011765-4.1242-3.92011765h-2.4701z" mask="url(#a)" transform="translate(25.5 1.693941)"/><path d="m7.2828 19.3900824 3.5445-10.38711769 3.3048 10.38711769zm16.4237 7.4069411-6.5892-19.66029409c-.7735-2.349-1.581-3.42541176-4.8195-3.42541176h-3.1263l-9.1715 24.82399995h4.1599l2.0927-6.1377647h8.8332l1.258 3.9712942c.4641 1.463647 1.0404 2.1135882 2.6231 2.1135882h5.5522c-.2686-.2661177-.4641-.7232941-.8126-1.6854118z"/><path d="m75.7486 25.4488647c-2.2321 0-3.043-2.5895294-3.043-6.6341765 0-3.8501764.7735-6.4772353 3.043-6.4772353 2.2406 0 2.9682 2.7754706 2.9682 6.8201177 0 3.8262941-.7259 6.2912941-2.9682 6.2912941m-.0731 3.538c5.474 0 10.1354-3.9269412 10.1354-10.4382941 0-5.5560588-4.4285-9.67235295-10.0198-9.67235295-5.5522 0-10.1847 4.03952945-10.1847 10.56111765.0017 5.7334706 4.6342 9.5495294 10.0691 9.5495294"/><path d="m88.77502 28.5341235h4.1242v-15.8288823l10.4788 12.6252353c1.4654 1.7792353 2.431 3.203647 4.0103 3.203647h3.0039v-22.7428235c0-1.31182353-.884-2.15452941-2.2321-2.15452941h-1.8122v14.96911761l-10.0776-12.04864702c-1.5028-1.80482353-2.2729-2.92047059-4.4659-2.92047059h-3.0294z"/><path d="m123.38923 25.4488647c-2.2389 0-3.0481-2.5895294-3.0481-6.6324706 0-3.8518823.7718-6.4789412 3.0481-6.4789412 2.2321 0 2.9665 2.7822942 2.9665 6.8269412 0 3.8194706-.7344 6.2844706-2.9665 6.2844706m-.0782 3.538c5.4757 0 10.1422-3.9269412 10.1422-10.4382941 0-5.5458235-4.4353-9.67235295-10.0249-9.67235295-5.5539 0-10.1762 4.03952945-10.1762 10.56111765-.0017 5.7385882 4.6223 9.5495294 10.0589 9.5495294"/><path d="m164.41499 16.6613529c.2142-2.8164117 1.3005-4.5888235 3.1518-4.5888235 2.5483 0 3.0464 4.5888235 3.0464 4.5888235zm12.1737 2.6526471c.1173-.7659412.1564-1.5387059.1564-2.2312941 0-4.5495883-3.3541-8.17117649-9.0967-8.17117649-5.7035 0-9.8702 4.00541179-9.8702 10.09882349 0 5.8955295 3.6601 9.9777059 9.6356 9.9777059 5.9772 0 8.1294-3.1183529 8.2535-6.1275294-1.2784.9314118-3.2402 1.465353-5.44 1.465353-3.3388 0-5.4961-1.9054706-5.8106-5.0118824z"/><path d="m143.8557 25.3306471h-1.0013v-12.369353c.425-.0443529.7752-.0818823 1.4297-.0818823 2.5092 0 4.3996 2.3182941 4.3996 5.3974117 0 4.5837059-1.7408 7.0538236-4.828 7.0538236m4.0154-16.2246471c-2.2372 0-4.0885.81029412-5.0167 1.7348824v-5.20294122c0-2.38652942-1.6949-3.93035294-4.0817-3.93035294h-2.4667v26.82841176h7.7095c7.361 0 11.4478-3.8587059 11.4478-11.0302353 0-4.8174118-3.2725-8.3997647-7.5922-8.3997647"/><path d="m.98923 26.8401824h6.5535v-22.89805887c0-2.38652941-1.7357-3.93035294-4.1259-3.93035294h-2.4293v26.82841181z" mask="url(#b)" transform="translate(178.5 1.693941)"/></g></svg>