<svg height="72" viewBox="0 0 154 72" width="154" xmlns="http://www.w3.org/2000/svg" xmlns:xlink="http://www.w3.org/1999/xlink"><mask id="a" fill="#fff"><path d="m0 99.9842105h181.776468v-99.9842105h-181.776468z" fill="#fff" fill-rule="evenodd"/></mask><g fill="none" fill-rule="evenodd" transform="translate(-14 -14)"><path d="m16.3869837 69.6626316c.0420611 1.123421.1150727 2.2802631.2481337 3.4718421.0576686.3255263.1068721.678421.1698314 1.005.1936396.3405263.43225.6560526.7295872.9347368.135971.1244737.276439.2360527.4192878.3394737 1.0803605.2102632 2.2755291.3139474 3.4455669.4018421 1.8110058.1631579 3.6754477-.0781579 5.5790407.0084211 3.1802384-.3057895 6.6633692-.3586842 10.9869273-.5205263 5.8483372-.5221053 15.9445756.5776315 19.2438547.6252631 6.7395552.2744737 13.5108546-.0489474 13.5108546-.0489474 15.5123256-.5597368 14.0224651-.9544736 20.6286948-1.0507894l-.2425785-.0768421c3.7159215.1981579 7.4082994.5218421 11.1019997.8360526 4.951829-.0042105 3.195582-.2918421 14.773215-.1034211 8.496861-.0626315 8.844724.0573685 15.366303.1102632 0 0 1.780584.1744737 1.676357.2776316 0 .0015789-.013756.0015789-.016401.0026316 4.446567.12 10.34543.5026315 15.06632.6115789 1.6917-.0936842 3.704811-.1689474 6.603055-.1621053 1.453355.0084211 3.123893.0363158 5.083832.1144737l.541502.0239474c.019841-.1721053.033596-.3602632.057405-.5344737.117982-1.1094737.137822-2.3992105.154223-3.7681579-.00238-1.1610526-.019311-2.2244737-.041796-3.2276316h-145.1005583c.0084651.2455264.0055552.4784211.015343.7297369" fill="#e82c2e"/><path d="m36.4026453 15.6253158-.102375-.0031579-.0981424.0044737.1092529.0028947zm-1.5179011.0610526c-3.9685523.1623684-8.1603721.3157895-12.5820727.3128948-1.9694622-.0013158-5.0473256-.1789474-5.0473256-.1789474-.0632238.1915789-.0939099.4205263-.1277703.6478947-.1849099 1.1318421-.2777616 2.4307895-.3785494 3.8084211-.352096 6.2447368-.3269652 10.0086842-.2692965 13.9857895.0923226 2.2092105.1415261 4.4226315.1036976 6.6415789l-.0365058.2971053c0 .6165789-.0029099 1.2589473-.0097878 1.93.0714244 2.1786842.0896773 4.3821052.087032 6.563421l-.0322733-.945c-.1206279 5.9826316-.2454883 10.2586842-.2722064 14.47-.0037682 2.1021053-.0195755 4.1952632.0671919 6.4436842.0423256 1.121579.1150727 2.2786842.2483983 3.4718421.0576686.3239474.1066075.676579.1698314 1.0047369.1936395.3405263.4319854.6547368.7293226.935.1362355.1228947.276439.2360526.4195524.3389473 1.0800959.2110527 2.2752645.3128948 3.4453023.4023685 1.8110058.1631579 3.6754477-.0797369 5.5790407.0081579 3.1802384-.3055264 6.6636337-.3586843 10.9871918-.5207895 5.8483373-.521579 15.9445756.5781579 19.2438547.6252631 6.7390262.2734211 13.5108546-.0486842 13.5108546-.0486842 15.5125902-.5607894 14.0227297-.9557894 20.6284303-1.0507894l-.2425785-.076579c3.7159215.1981579 7.4080349.5205263 11.1017355.8355263 4.951035-.0039473 3.195846-.2913158 14.77348-.1028947 8.497125-.0628947 8.844988.0571053 15.366831.1102631 0 0 1.780055.1742106 1.676358.2773685-.057669.0602631-.868468-.0210527-.868468-.0210527 4.517197.0894737 10.895927.5181579 15.917593.6339474 1.690907-.0921053 3.70534-.1689474 6.603319-.1607895 1.453355.0084211 3.124422.0352632 5.082774.1147369l.542825.0236842c.019576-.1718421.033596-.3602632.057404-.5347369.117983-1.1092105.137294-2.4002631.154489-3.7676315-.033861-10.3131579-.890954-13.7684211-1.178503-22.7794737-.169567-2.2186842-.140468-4.4544737-.091-6.6442105l.019575.9531578c.304215-6.0102631.712393-10.2568421 1.002852-14.4507894.144701-2.0902632.30448-4.1694737.382782-6.3981579.042326-1.1139474.054759-2.2621053.01111-3.431579-.048674-.4968421-.08227-1.0857894-.186232-1.4655263l-.251044-.0236842-3.929401-.1463158c-1.559962-.1147368-3.150875-.2205263-4.768241-.3155263-3.240552.2276316-6.802515.2663158-11.177657.0165789-4.817445-.0305263-12.579163-.5215789-16.996895-.7702631-2.164425-.0178947-4.780675-.0402632-7.155669.0210526-4.581744-.1436842-3.000619-.1326316-8.859009-.1589473l.183852.0360526c-15.5673489.6602631-21.5254681.0894737-23.1298721.3628947-1.2811425.2205263-4.7359681-.2831579-8.4481861-.1031579-5.0176977.2428948-10.1814186.0586842-14.8351163-.0544737-8.5288692-.1744736-8.8725-.3213157-15.4070407-.6157894l-3.7693575-.3136842 2.9657006.0807894c-.6200698-.0292105-1.2737355-.0681579-1.9541192-.1142105-3.1857936.0236842-8.9473634-.0781579-9.0386279-.1339474zm-.0505262-1.1931579c4.0304535-.108421 7.9990058-.0960526 11.2128401.0878948 7.4463925.3839473 16.1509128.4623684 24.9802936.3810526 7.3789361-.1297368 10.8186832-.1057895 15.4633867-.0513158l.3465407.1031579c5.403654-.0528947 19.4896079.2192105 20.6942989.1760526 1.43087-.0521052 28.867899.4 22.259024.3442106 2.896921.2278947 11.149881.1273684 15.896959.4481579 6.869442.2247368 4.425933-.2692106 10.35998.1802631 1.293046-.1047368 2.61916-.2347368 3.986805-.3921053 1.008407-.1342105 2.589532.6907895 2.903799 1.9494737.394157 1.1036842.422198 2.0581579.504997 2.9947369.084387 1.8489473.135971 3.5502631.138881 5.2094737.036506 3.3089473-.095232 6.3386842-.233055 9.3444736-.189407 5.971579-1.138823 11.9723685-1.150198 19.5947369.139146 2.8521052.517695 6.1486842.951268 9.778421.253689 4.7434211-.00291 8.7681579-.293105 10.1707895l-.028305.4394737c-.06005.7978947-.120628 1.6328947-.350773 2.513421-1.10655.4968422-1.718154.0878948-2.647201.1771053-3.144791-.0936842-6.654904-.1086842-10.320299-.273421-5.180652.3989473-11.124486.5652631-16.552477.2636842-7.468349-.3726316-16.201175-.3405263-25.058331-.4244737-7.401687-.0247369-10.8483115-.1184211-15.5057127-.1884211l-.3478634-.0821052c-5.4189971-.0989474-21.6614389.5007894-20.751968.2178947-12.3352616.6586842-28.9530785.1502632-22.3233052.145-2.9053867-.1394737-11.1834768-.0307895-15.951718-.2552632-1.4015059-.0463157-2.4157326-.06-3.1929361-.0615789-3.575718.3489474-7.4053895.5902632-11.5760465-.1173684-2.1996076-.5360527-2.9403052-2.8818421-3.0807733-4.9023684-.2073953-2.0344737-.1864971-3.5668421-.2986598-5.2542106-.1822646-3.2655263-.2806716-6.2826315-.4153198-9.2773684-.2216802-5.9518421-.0433837-12.0797368.5274825-19.7494737.011375-2.8623684-.1036976-6.1823684-.2370232-9.8036842.246811-4.9847368.6608081-9.0736842 1.0676628-10.225-.0042326.1310526-.0029099.2357895-.0015872.3447369.0394157-.3868421.0814767-.7828948.1277703-1.1892106.2132151-.7926315-.0211628-1.6202631.7211221-2.4839473.8010116.0178947 1.6342965.0447368 2.4956221.0489473 3.4423924.0068421 7.3128023-.3713158 11.3742064-.3936842-1.6694797.0392105 2.1882326.0726316 4.303718.2118421z" fill="#010101"/><path d="m56.8156119 40.3290263c-.3169128 0-.9118517.291579-2.7130697 2.5734211-1.990625 2.5021052-3.2307646 4.0065789-3.7918431 4.6036842-1.5025581 1.6118421-2.7244447 2.4297368-3.6151337 2.4352631-.0013227-.0013158-.1052849-.0892105-.1052849-.6513158 0-.7663157.3354303-1.8215789.9946512-3.1357894.5610785-1.1307895 1.1139564-2.0152632 1.6652471-2.6602632.7071017-1.198421 1.6832354-2.5076316 2.9037994-3.8921052 1.6342965-1.8586843 2.9291948-2.8005264 3.8452791-2.8005264.0489389 0 .0841221.0136842.1150726.0460527.0685146.0739473.1767093.298421.1346483.9778947-.0743343.9297368.0505262 1.5521053.3785494 1.9052632.1965494.2118421.4602907.3192105.7843459.3192105.746253 0 1.1237442-.6292105 1.1237442-1.8713158 0-.6684211-.182529-1.33-.5415029-1.9576316-.4616133-.8752631-1.1195116-1.3189473-1.9557064-1.3189473-1.876875 0-4.2029302 1.7555263-7.1109622 5.3660526-2.8448081 3.5344737-4.2870523 6.4697368-4.2870523 8.7244737 0 .7410526.2021046 1.3831579.6004942 1.9094737.4655814.6192105 1.1166017.933421 1.9371889.933421 1.4771628 0 3.1045814-1.0176316 4.8370204-3.0242105.6396453-.7397369 1.7718546-2.3347369 3.4609099-4.8731579.5245726-.7955263.7293226-1.0705263.8092122-1.1639474.3592383.1021053 1.0382994 1.0955263 1.0382994 7.1492105 0 2.3668421-1.235907 7.446579-2.0892965 10.0534211-.6364709 1.9523684-1.3983314 3.3494737-2.3226163 4.2663158l-.1108401.1002631c-.2399332.2163158-.4671686.4228948-.754718.5947369-.5007646.318421-.6396454.7565789-.3928343 1.2321052.2357005.4478948.5780087.541579.8261424.541579.2751163 0 .5851512-.1118421.944125-.3392105.3311977-.2107895.561343-.3918421.8909535-.6989474.6227151-.6547368 1.2202994-1.4805263 1.7774099-2.4618421 1.6186889-2.8497368 3.419907-9.1213158 3.419907-13.5631579 0-1.6971053-.1542239-3.4539474-.4613489-5.2260526-.4883314-2.755-1.2205639-4.0934211-2.2347907-4.0934211" fill="#010101"/><path d="m30.7337422 39.7621053c.8824883-.8286842 1.7184186-1.2505264 2.4845116-1.2505264.93275 0 1.4041511 1.0173685 1.4041511 3.0213158 0 1.45-.6536657 3.4097369-1.9472412 5.826579-1.4517675 2.7518421-2.9373954 4.1476316-4.4132355 4.1476316-.8935988 0-1.3467471-.97-1.3467471-2.8818421 0-2.3334211 1.0438547-4.8831579 3.1029942-7.5821053.6145145-.8136842.6986366-1.106579.7002238-1.2668421zm2.4845116-2.951579c-.4224622 0-1.031157.1939474-1.8631192.5960526-.84175.4063158-1.3340494.815-1.4938285 1.2407895-.1502558-.035-.3185-.0531579-.5052616-.0531579-.9523256 0-1.9147035 1.2068421-2.9416279 3.6926316-.9734884 2.3794737-1.467375 4.6263158-1.467375 6.6744737 0 1.2463158.3354302 2.2960526.9988837 3.1194737.6634535.8355263 1.5403866 1.26 2.6064622 1.26.1121628 0 .2259128-.0044737.3423081-.0139474 2.0691919-.1773684 3.9936832-1.8378947 5.7205669-4.9360526 1.4702849-2.6389474 2.1969622-4.8005263 2.1549012-6.426579-.0814768-3.4205263-1.2766454-5.1536842-3.5519099-5.1536842z" fill="#010101"/><path d="m45.8539477 37.6198158c.2203575 0 .2846395.0921053.3129447.2257895l.0420611.233421c.0603139.2381579.1148081.4060526.1737994.5357895.11375.2260526.3214099.3515789.5864738.3515789.3185 0 .5597559-.0947368.7182123-.2802631.186497-.2205263.2412558-.5447369.1626889-.9923684-.231468-1.2434211-1.0367122-1.8742106-2.3945698-1.8742106-1.8321686 0-3.4945058 1.7584211-5.0655784 5.3657895.0335959-.6963158.1066075-1.4847368.2145377-2.3555263.0462936-.3157895-.0126976-.6544737-.1753866-1.0076316-.231468-.5065789-.6269477-.7744737-1.1446424-.7744737-.3269651 0-.6396454.1631579-.9330146.4855263-.2901947.3223685-.4221976.6489474-.3899244.9713158.2370233 2.3055263.3563285 4.3902632.3563285 6.1989474 0 1.7555263-.1193052 3.9884211-.3563285 6.6371053-.0616366.7676315.0534361 1.2963158.3507733 1.6176315.2034273.2189474.4822471.3292106.830375.3292106.3044796 0 .6060494-.1310527.8867209-.3810527.3169128-.2497368.4769564-.5371052.4769564-.8636842-.0632238-1.4542105-.1375581-3.133421-.1388808-3.2223684-.026718-1.8128947.2103052-3.4428947.7055145-4.8397368.4684913-1.3118421 1.296221-2.7868421 2.4607035-4.3860527 1.1964913-1.6313158 1.9218459-1.9747368 2.3202355-1.9747368" fill="#010101"/><path d="m62.2104305 51.5697632c-.2425785 0-.4671686-.0655264-.4671686-.5455264 0-1.3860526 1.4647297-3.9828947 4.3558314-7.7173684 2.8043343-3.6215789 4.8679709-5.6228947 6.1094332-5.953421.004497.0444737.0068779.1047368.0068779.1855263.0126976.4565789-.1021105.9878947-.3367529 1.5686842-.0420611.0836842-.0616367.1744737-.0616367.2707895 0 .2689473.0872965.478421.2595087.6223684.0169303.0152631.0354477.0278947.0547588.0402631-.3338431.1634211-.5385931.4886843-.5904419.9557895-.0994651.8292105-.5235145 1.7639474-1.2568052 2.7789474-.1121628.1547368-.6877907.875-2.7990436 3.413421-2.4141454 2.906579-4.1886454 4.3805264-5.2745611 4.3805264m27.6878082-1.8421053-.0912646.0013158c-.3658517.0097368-.6325029.29-.8261424.4955263-.0687791.0726316-.174064.1828947-.2018401.1968421-.2626832 0-.7549826-.3378947-1.1308867-2.6044737-.0489389-.2623684-.1796191-1.4039473-.3941569-3.4873684l-.3621483-3.7886842c-.3938924-1.7513158-1.2202994-2.6389474-2.4548837-2.6389474-1.2414622 0-3.1942587 2.2368421-5.9631454 6.835l.9425378-4.7331579-.2666511-.9755263c-.1261832-.2513158-.4026221-.5513158-1.0031163-.5513158-.5581686 0-1.2541599.3136842-1.4012413 1.8142105-.0941744 1.1902632-.1600436 2.1239474-.1978721 2.7781579-.3573866 2.3110527-.6129273 3.966579-.7981017 5.1760527-.0462936-.0081579-.0867675-.0236842-.1404681-.0236842-.4375406 0-1.0028517.1757894-1.1994011 1.0163158-.003968.0207894-.0349186.0989473-.2354361.2189473-.1909941.1044737-.3761686.1381579-.5206046.1005263-.4922994-.1313158-.7436076-.823421-.7436076-2.0586842 0-.7242105.3285524-2.7965789.9734884-6.1581579.0912645-.4494737.0351831-.8010526-.1653343-1.0468421-.0772442-.0918421-.1727413-.1686842-.2875494-.2257894.4952093-.225.9340727-.7760527.9340727-2.0181579 0-1.0855264-.2886076-1.8181579-.8528605-2.1744737-1.1599855-.7576316-2.8744361-.1744737-5.2044593 1.7989473-2.0496163 1.7363158-3.9656425 3.9786843-5.6941134 6.6639474-1.7914302 2.8176316-2.6990494 5.1002632-2.6990494 6.785 0 .8692105.2679738 1.5128947.7967791 1.9092105.3145319.2371053.6914942.3571053 1.1208343.3571053 1.2359069 0 2.8522151-.9239474 4.9380726-2.8257895 1.4210814-1.2923684 2.7551309-2.7326316 3.9727849-4.2886842v.1760526c0 2.5647369.6817064 4.1097369 2.024221 4.5881579.3282877.1271053.6552529.1928948.970843.1928948.6719186 0 1.2134215-.2107895 1.6499041-.5847369-.1081948.7336842-.1124274.8010527-.11375.8328948-.0322733.3560526.0407383.6347368.2174476.8276316.1753867.1926315.447593.29.8052442.29.390189 0 .9092064-.1907895 1.1729477-1.0981579.7208575-2.3176316 1.9736948-4.8868421 3.7214767-7.6334211 2.4186425-3.7886842 3.0360669-4.0831579 3.1395-4.0902632.0211628.0136843.2076599.1686843.3801367 1.4471053.2005174 1.7989474.3380755 3.1636842.4166424 4.1784211.4616134 4.3944736 1.7242384 6.6218421 3.7484593 6.6218421.3507733 0 .7266773-.14 1.1155436-.4134211.5481163-.3752631.8441308-.7342105.8848692-1.0660526.0224855-.1857895-.0362413-.3613158-.1695669-.5092105-.2444302-.2694737-.5319796-.3071053-.808154-.3071053" fill="#010101"/><path d="m96.3969084 52.4193684c-.0576686-.0165789-.1150726-.0265789-.1698314-.0265789-.3589738 0-.5777442.3321052-.7391104.575-.033596.0502631-.0661338.0976316-.071689.1115789 0 0-.0388866.0242105-.1753866.0242105-.5780087 0-1.0168721-.4847368-1.3284942-1.46-.060314-.2792105-.1261831-.5402631-.1949622-.7997368-.1346483-.5163158-.2637413-1.0021053-.3211454-1.6326316-.0600494-.6755263-.0375639-1.0942105-.0084651-1.7263158l.0111105-.1871052c.0857093-1.8113158.4306628-3.8236842.8195291-4.7823684.387279-.9057895.5724535-1.5157895.5724535-1.8631579 0-1.0760527-.6904361-1.236579-1.1044332-1.236579-.8917471 0-1.5261017 1.2378947-1.9961802 3.8968421-.2928401 1.7231579-.4417733 3.1952632-.4417733 4.3718421 0 1.295.238346 2.6431579.7100117 4.0078948.6930813 2.0376315 1.7279418 3.0728947 3.0818313 3.0728947.3423082 0 .7213867-.1226316 1.118189-.3642105.5343605-.3013158.8025988-.6739474.8025988-1.1105263 0-.2710527-.1529011-.7468422-.5642529-.8710527" fill="#010101"/><path d="m107.841666 45.6271316c-.14761 0-.353418.0571052-.493886.3139473-.883811 1.356579-1.955707 2.4631579-3.185794 3.2878948-1.322939.8821052-2.676564 1.33-4.024634 1.33-1.2795549 0-1.90227-.7484211-1.90227-2.2857895 0-1.4486842.7491628-3.508421 2.222093-6.1210526 1.652549-2.9136842 3.271238-4.3902632 4.81718-4.3902632.388602 0 .794134.2192105 1.202311.6502632.496532.5218421.91873.7760526 1.284846.7760526.220093 0 .453148-.0907895.715303-.2736842.301834-.2021053.442037-.4884211.408177-.8189474-.043384-.6865789-.594675-1.2657894-1.635355-1.7194737-.77879-.3460526-1.359445-.513421-1.77741-.513421-2.321558.0126316-4.538096 1.6718421-6.5877119 4.9318421-1.7647122 2.805-2.6569884 5.2276316-2.6569884 7.1981579 0 1.2671053.3058024 2.3402632.9118518 3.19.7422849 1.0439474 1.8517442 1.5742105 3.2966335 1.5742105.026454 0 .19655-.0194737.514785-.0613158.293369-.0252631.460026-.0376315.501029-.0376315.235436 0 .758951-.1144737 2.564401-1.0955264.303951-.1576315 1.076922-.8428947 2.362297-2.093421 1.890895-1.8476316 2.207808-2.4547369 2.279497-2.7421053.060049-.1997368 0-.4257895-.186497-.6921052-.189407-.2707895-.399712-.4076316-.629858-.4076316" fill="#010101"/><path d="m131.977353 51.8660789c-.057404-.0168421-.115073-.0265789-.169831-.0265789-.358974 0-.577745.3336842-.739111.5778947-.033596.0486842-.063224.0963158-.068514.1086842 0 .001579-.039681.0239474-.178562.0239474-.572188 0-1.022427-.498421-1.328494-1.458421-.057139-.2763158-.126183-.5357895-.194962-.7955264-.134648-.5163157-.263741-1.0047368-.321145-1.638421-.06005-.6628947-.037564-1.0734211-.008465-1.6926316l.01111-.2205263c.085709-1.8086842.433837-3.8210526.819529-4.7810526.387279-.9044737.572454-1.5128948.572454-1.8631579 0-1.0757895-.690436-1.2363158-1.104169-1.2363158-.892012 0-1.526366 1.2378947-1.994593 3.8960526-.293634 1.7207895-.443625 3.1918421-.443625 4.3723684 0 1.2978948.238346 2.6460527.710012 4.006579.693081 2.0402631 1.731116 3.0744737 3.084741 3.0744737.339398 0 .718477-.1228948 1.117924-.3642106.531715-.3042105.799954-.678421.799954-1.1113157 0-.2702632-.152901-.7463158-.564253-.8718422" fill="#e82c2e"/><path d="m129.426575 35.9851053c.986186 0 1.509436-.5528948 1.509436-1.5978948 0-1.3007894-.794133-1.5726316-1.463142-1.5726316-.448916 0-.830375.1881579-1.127977.5636843-.269296.3557894-.403945.72-.403945 1.0828947 0 .3168421.137559.6502632.408178.995.296014.3518421.657898.5289474 1.07745.5289474" fill="#e82c2e"/><path d="m141.027356 35.8201316c-1.833491 0-3.493183 1.7573684-5.065314 5.3660526.034654-.6965789.106343-1.485.215596-2.3571053.043648-.3142105-.014021-.6531578-.175122-1.0076315-.233056-.505-.630122-.7728948-1.144643-.7728948-.326965 0-.639645.1628948-.931692.4842106-.291517.3210526-.425107.6473684-.392834.9710526.235965 2.3071053.356593 4.3918421.356593 6.1992105 0 1.7568421-.120628 3.9881579-.356593 6.6381579-.062695.766579.051849 1.296579.350773 1.6160526.203692.2192106.482512.3310527.83064.3310527.307389 0 .608695-.1313158.887779-.3823684.314532-.2513158.476956-.5386843.476956-.8626316-.08518-1.9326316-.139939-3.1455263-.139939-3.2223684-.026982-1.8086843.207396-3.4368422.704192-4.8407895.471137-1.3131579 1.301776-2.7886842 2.463085-4.3847369 1.19702-1.6328947 1.923168-1.9747368 2.31759-1.9747368.221944 0 .284639.0907895.312944.2244737l.043649.2360526c.060049.2342105.114543.401579.174857.5342105.115073.2289474.318765.351579.583829.351579.32141 0 .562665-.0944737.720857-.2802632.186762-.2218421.238875-.5457894.161631-.9936842-.233055-1.2421052-1.038299-1.8728947-2.394834-1.8728947" fill="#e82c2e"/><path d="m150.606138 52.0567632c-.109518-.2107895-.247076-.3294737-.471402-.4128948-.164011-.0602631-.315854-.0531579-.503939-.0207895l-.062694.0110527c-.194963.0347368-.324056.1410526-.425108.2276316-.101052.083421-.152901.1236842-.235701.1236842-1.550174 0-2.340075-2.3626316-2.340075-7.0221053 0-3.9689474.189407-7.5597368.55711-10.6715789.089678-.7439474.259509-1.7960527.514785-3.2194737l.238611-1.4010527c.068779-.3515789.109253-.5863157.126183-.7342105 0-.8610526-.442038-1.3342105-1.244372-1.3342105-.507907 0-1.107079.7176316-1.721329 6.0471053-.396802 3.5123684-.598907 7.0392105-.598907 10.4818421 0 .6736842.006878 1.2905263.018253 1.8502631.109518 2.4952632.608695 4.4547369 1.488273 5.8278948.777204 1.2194736 1.728471 1.8394736 2.821265 1.8394736 1.529012 0 1.88825-.5694736 1.921581-1.0523684.010053-.1815789.021163-.3389474-.082534-.5402631" fill="#e82c2e"/><path d="m122.310984 39.7649211c-.315326 0-.906297.2928947-2.709896 2.5747368-1.953061 2.4531579-3.226532 4.0007895-3.791843 4.6036842-1.50679 1.6118421-2.728942 2.4297368-3.616985 2.4355263-.002645-.0018421-.103698-.0897368-.103698-.6518421 0-.765.333843-1.8197368.991741-3.1357895.558698-1.1247368 1.112634-2.0110526 1.665248-2.6597368.706837-1.1989474 1.686145-2.5078947 2.905386-3.8923684 1.635619-1.8586842 2.92893-2.8007895 3.843692-2.8007895.049204 0 .085445.0136842.115337.0457895.06825.0742105.177768.3002631.134384.9786842-.071424.9292105.052113 1.5518421.380137 1.9044737.194962.2123684.460026.3197368.784346.3197368.744665 0 1.123744-.6292105 1.123744-1.8726316 0-.6642105-.181207-1.3242105-.54018-1.9578947-.462937-.875-1.120835-1.3186842-1.957294-1.3186842-1.876611 0-4.202401 1.7555263-7.11202 5.3668421-2.843486 3.5336842-4.285995 6.4697368-4.285995 8.7252632 0 .745.203428 1.3871052.600495 1.9060526.462936.6226316 1.115543.9365789 1.937189.9365789 1.477427 0 3.104845-1.0176315 4.835962-3.0244737.646788-.7465789 1.778468-2.34 3.46091-4.8728947.522985-.79.727735-1.0676316.810799-1.1639474.358709.1005264 1.038035 1.0942106 1.038035 7.1494737 0 2.3668421-1.235907 7.4463158-2.090619 10.0534211-.635413 1.9521052-1.397009 3.3502631-2.320236 4.2673684l-.120363.1076316c-.235965.213421-.460026.4157895-.745195.5860526-.504997.3181579-.643613.7563158-.392834 1.2305263.235965.4478948.578273.5431579.825084.5431579.273529 0 .583564-.1115789.942802-.3392105.333579-.2121053.563989-.3934211.890689-.6978947.621657-.651579 1.218977-1.4792106 1.777675-2.4628948 1.617366-2.8510526 3.419642-9.1226316 3.419642-13.5631579 0-1.6955263-.154224-3.4526316-.456851-5.2263158-.491242-2.7560526-1.221887-4.0944736-2.239288-4.0944736" fill="#e82c2e"/><g fill="#010101"><path d="m63.6989419 61.1490789c.2692965.0042106.7475755.0531579.7475755.4102632 0 .2134211-.1105755.3305263-.3042151.4144737-.2357006.1102631-.6438779.1507895-.9076192.1507895-.3592383 0-1.1084011-.0823685-1.1084011-.5652632 0-.2486842.1740639-.3794737.3817238-.4744737l.8441308.0544737zm-.5333024-1.5463157c-.4780145 0-.7896366-.2957895-.7896366-.7718421 0-.4481579.3325204-.771579.7896366-.771579.4293402 0 .7827588.3234211.7827588.7647368 0 .4686843-.3110931.7786843-.7827588.7786843zm.7129215-1.8197369c-.2216802-.103421-.4716657-.1521052-.7129215-.1521052-.7068372 0-1.3507151.4355263-1.3507151 1.1931578 0 .3781579.1597791.6894737.4571163.9239474-.2830523.1326316-.4854215.2847369-.4854215.6289474 0 .2623684.1391453.4205263.3396628.5515789-.3322558.1144737-.5330378.3418421-.5330378.7076316 0 .3847369.2637413.6334211.6031395.771579.3044797.1160526.7057791.1381579 1.031157.1381579.679061 0 1.7382587-.1186843 1.7382587-1.0076316 0-.3431579-.2148023-.6473684-.5401802-.7702632-.276439-.1047368-.7266773-.1115789-1.031157-.1242105-.2497209-.0068421-.5891192 0-.8316977-.0542105-.1515785-.0421053-.2624186-.1313158-.2624186-.2960527 0-.1789473.2076599-.3236842.3745814-.3236842.0616367 0 .1724768.0292105.2272355.0363158.0827994.0192105.1669215.0192105.2497209.0192105.3185 0 .6367355-.0752631.8935989-.2689473.2637412-.2081579.4489157-.5331579.4489157-.8778948 0-.3168421-.1235378-.6265789-.3380756-.8610526.0547587-.3655263.3044796-.3992105.6227151-.3992105h.0560814l-.0068779-.4381579-.1388808-.0068421c-.4782791.0023684-.7211221.1144737-.8107995.6097368z"/><path d="m66.7532352 60.8422368c-.3185 0-.6158372-.1713157-.7687384-.4394736-.1515785-.2763158-.2005174-.6405264-.2005174-.9586843 0-.2821052.0404738-.6197368.1724767-.8752631.1529012-.3042105.4573808-.4963158.7967791-.4963158.3044796 0 .5946744.1586842.7618604.4155263.1796192.2805263.2214157.6255263.2214157.9560526 0 .3026316-.0264535.6194737-.1724767.8957895-.166657.3168421-.4502384.5023684-.8107994.5023684m-.0476163.4478948c1.0663401 0 1.6342965-.8607895 1.6342965-1.8392105 0-.9239474-.5131977-1.8197369-1.5446192-1.8197369-1.0605203 0-1.6144564.8413158-1.6144564 1.8128947 0 .9236843.4711367 1.8460527 1.5247791 1.8460527"/><path d="m70.4205616 60.8422368c-.3185 0-.6158372-.1713157-.7687383-.4394736-.1526367-.2763158-.2005175-.6405264-.2005175-.9586843 0-.2821052.0404739-.6197368.1724768-.8752631.1529011-.3042105.4573808-.4963158.796779-.4963158.3044797 0 .5962617.1586842.7618605.4155263.1793546.2805263.2214157.6255263.2214157.9560526 0 .3026316-.0280407.6194737-.1724768.8957895-.1666569.3168421-.4502383.5023684-.8107994.5023684m-.0492035.4478948c1.0679274 0 1.6342966-.8607895 1.6342966-1.8392105 0-.9239474-.511875-1.8197369-1.5443547-1.8197369-1.0591977 0-1.6133983.8413158-1.6133983 1.8128947 0 .9236843.4714012 1.8460527 1.5234564 1.8460527"/><path d="m74.9737096 58.1970263c-.2483983-.3515789-.5668983-.565-1.0187238-.565-1.0168721 0-1.4533547.9642105-1.4533547 1.8392105 0 .4284211.0896773.8678948.3325204 1.226579.2555407.3726316.6089593.5931579 1.0734825.5931579.5190175 0 .8795785-.2484211 1.1012587-.6881579h.0140204v.6197368h.4909767v-4.7281579h-.5401802zm0 1.5086842c0 .2623684-.0407384.4897369-.2063372.7171053-.1812064.2457895-.4655814.4202631-.7772035.4202631-.7544535 0-.9062965-.8626315-.9062965-1.433421 0-.316579.0478808-.6334211.2079244-.9097368.151314-.2555264.4081773-.4410527.712657-.4410527.3039506 0 .6171599.1452632.7893721.3934211.1462878.2065789.1798837.455.1798837.695z"/><path d="m80.5015628 59.9741053c-.0883547.4760526-.3468052.8539473-.8727006.8539473-.7348779 0-.9073546-.8247368-.9073546-1.3913158 0-.5860526.2073953-1.3507894.9425377-1.3507894.507907 0 .7896367.3868421.8375175.8486842l.4994419-.0907895c-.1193053-.7228947-.5877966-1.2126316-1.3499216-1.2126316-1.0478226 0-1.5049389.9307895-1.5049389 1.8407895 0 .9165789.4531482 1.8181579 1.4970029 1.8181579.7544535 0 1.2329971-.5163158 1.3578576-1.226579z"/><path d="m81.7264651 61.2231579h.5399157v-4.7281579h-.5399157z" mask="url(#a)"/><path d="m83.6509299 59.1129474c.0208983-.5513158.3997123-1.0676316.989096-1.0676316.6227151 0 .948093.488421.9425378 1.0676316zm1.9583518 1.0481579c-.1499913.4128947-.4840989.6752631-.9396279.6752631-.3692907 0-.7367297-.1994737-.9033866-.5315789-.1293576-.2610527-.1444361-.5163158-.1444361-.7913158h2.5569942c.0280407-.9726316-.4446831-1.8826316-1.5387994-1.8826316-1.0523198 0-1.6274186.875-1.6274186 1.8407895 0 .9781579.5486453 1.8197368 1.6136628 1.8197368.6719186 0 1.2874912-.3865789 1.4967383-1.028421z" mask="url(#a)"/><path d="m88.8060006 59.0515263c-.4375407 0-.9549709.0210526-1.3507151.206579-.3870146.1715789-.6510204.5513158-.6510204.9726315 0 .695.5679564 1.0592106 1.2258547 1.0592106.561343 0 .982218-.2205263 1.2332616-.7228948l.0619012.6557895h.5399157c-.0687791-.2273684-.075657-.4826316-.075657-.7394737v-1.3565789c0-.3986842 0-.8413158-.2904593-1.1513158-.2637413-.3013158-.6986367-.3442105-1.0803605-.3442105-.6436134 0-1.4210814.228421-1.5147267.958421l.5034099.0836842c.0968197-.4826316.5192819-.6210526.9610552-.6210526.6240378 0 .8949215.2331579.8949215.8471053v.1521052zm.4573808.6336842c0 .6194737-.4505029 1.1860527-1.1150145 1.1860527-.3872791 0-.7618605-.1786843-.7618605-.6139474 0-.7228947.8727006-.7997369 1.4263721-.7997369h.4505029z" mask="url(#a)"/><path d="m91.0816619 57.7213421h-.5124041v3.501579h.5404448v-1.8336843c0-.3515789.0492035-.668421.276439-.943421.1864971-.2221053.4433604-.3518421.7250901-.3518421.2301453 0 .4854215.1171052.6034041.3168421.1036976.1786842.0981424.4410526.0981424.6473684v2.1647369h.5401802v-1.9371053c0-.3444737.0140204-.8134211-.167186-1.1094737-.2214157-.3655263-.572189-.5442105-.9972965-.5442105-.4952093 0-.8935989.3028947-1.0927936.7371052h-.0140204z" mask="url(#a)"/><path d="m97.9533788 61.1490789c.2679738.0042106.747311.0531579.747311.4102632 0 .2134211-.1121628.3305263-.3068604.4144737-.2359652.1102631-.6441425.1507895-.9065611.1507895-.3587093 0-1.1065494-.0823685-1.1065494-.5652632 0-.2486842.1727413-.3794737.3798721-.4744737l.8449244.0544737zm-.534625-1.5463157c-.4766919 0-.788314-.2957895-.788314-.7718421 0-.4481579.3311977-.771579.788314-.771579.4306628 0 .7840814.3234211.7840814.7647368 0 .4686843-.3126803.7786843-.7840814.7786843zm.712657-1.8197369c-.2187704-.103421-.4687559-.1521052-.712657-.1521052-.7068372 0-1.3507151.4355263-1.3507151 1.1931578 0 .3781579.1611017.6894737.4571162.9239474-.284904.1326316-.4840988.2847369-.4840988.6289474 0 .2623684.1362355.4205263.3396628.5515789-.333843.1144737-.534625.3418421-.534625.7076316 0 .3847369.2666512.6334211.6031395.771579.3060669.1160526.7071018.1381579 1.0327442.1381579.6758866 0 1.736407-.1186843 1.736407-1.0076316 0-.3431579-.2129506-.6473684-.5383285-.7702632-.2780262-.1047368-.7266773-.1115789-1.0338023-.1242105-.2486628-.0068421-.5864739 0-.8309041-.0542105-.1526366-.0421053-.2618895-.1313158-.2618895-.2960527 0-.1789473.2071308-.3236842.375904-.3236842.0600495 0 .1722123.0292105.226971.0363158.0814767.0192105.1669215.0192105.2483982.0192105.3185 0 .6356774-.0752631.8935989-.2689473.2637412-.2081579.4489157-.5331579.4489157-.8778948 0-.3168421-.1219506-.6265789-.3364884-.8610526.0547587-.3655263.3044796-.3992105.6243023-.3992105h.0531715l-.0055552-.4381579-.140468-.0068421c-.4766919.0023684-.7208576.1144737-.8107994.6097368z" mask="url(#a)"/><path d="m99.6573538 57.7213421v3.501579h.5401802v-1.7652632c0-.275.026718-.4955263.172477-.7510526.199195-.351579.489654-.5513158.906296-.5513158h.112163v-.5173684l-.202105-.0126316c-.566369 0-.865293.4410526-1.032479.9152631h-.011111v-.8192105z" mask="url(#a)"/><path d="m102.194719 59.1129474c.022486-.5513158.402358-1.0676316.991742-1.0676316.621392 0 .948357.488421.939892 1.0676316zm1.960998 1.0481579c-.152637.4128947-.487009.6752631-.94148.6752631-.367174 0-.734878-.1994737-.902064-.5315789-.131738-.2610527-.145494-.5163158-.145494-.7913158h2.557259c.026453-.9726316-.444684-1.8826316-1.537477-1.8826316-1.054965 0-1.627154.875-1.627154 1.8407895 0 .9781579.545471 1.8197368 1.612869 1.8197368.671918 0 1.287756-.3865789 1.494357-1.028421z" mask="url(#a)"/><path d="m105.863316 59.1129474c.019575-.5513158.399976-1.0676316.989096-1.0676316.621392 0 .948093.488421.942802 1.0676316zm1.957029 1.0481579c-.151579.4128947-.482776.6752631-.939628.6752631-.367968 0-.735407-.1994737-.899683-.5315789-.131739-.2610527-.146817-.5163158-.146817-.7913158h2.555936c.026189-.9726316-.444948-1.8826316-1.537741-1.8826316-1.052056 0-1.627154.875-1.627154 1.8407895 0 .9781579.54838 1.8197368 1.613398 1.8197368.671918 0 1.287756-.3865789 1.496738-1.028421z" mask="url(#a)"/><path d="m109.625187 57.7213421h-.51214v3.501579h.541503v-1.8336843c0-.3515789.047881-.668421.277762-.943421.186762-.2221053.440451-.3518421.725355-.3518421.2275 0 .485421.1171052.603404.3168421.103697.1786842.095232.4410526.095232.6473684v2.1647369h.54018v-1.9371053c0-.3444737.014285-.8134211-.164276-1.1094737-.22168-.3655263-.575099-.5442105-.997296-.5442105-.497855 0-.893599.3028947-1.092794.7371052h-.01693z" mask="url(#a)"/><path d="m112.57901 60.2917632c.180942.7173684.860003.9992105 1.545942.9992105.684616 0 1.463142-.2889474 1.463142-1.0828948 0-.3155263-.148668-.6057894-.425107-.7913157-.217713-.1452632-.476957-.1939474-.735407-.2413158l-.511611-.0894737c-.310035-.0473684-.629857-.1310526-.629857-.5092105 0-.386579.430662-.5107895.747575-.5107895.402622 0 .761861.1644737.902064.5510526l.498119-.1031579c-.172741-.6476316-.76186-.8821052-1.391718-.8821052-.643878 0-1.317119.3044736-1.317119 1.0271052 0 .6197369.4923.8681579 1.032215.9713158l.575364.1034211c.304215.0557894.684616.1589473.684616.5289473 0 .4492106-.480131.5805263-.851538.5805263-.422727 0-.983805-.1786842-1.057875-.6544736z" mask="url(#a)"/></g><path d="m92.0651497 26.0480789c1.3340494-.3405263 3.1535204-.3573684 4.2084855.0405264.9428023.3571052 1.9374535.8331579 2.6302703 1.8686842.5724535.8526316.977721 2.2913158.8163547 3.5655263-.443096 3.5305263-2.6821192 5.3378947-6.5972355 6.1136842-2.2152151.3360526-4.1188081-.1102632-5.5975581-1.3968421-.9017994-.7731579-1.3676454-1.3805263-1.7506919-2.5105263-.4949448-1.4513158-.4221977-2.7589474.1571337-3.9423684.6340901-1.2981579 2.4101774-1.8813158 2.5813314-1.9344737l2.8826367-1.381579c.1264476-.1352631.231468-.2092105.3354302-.2663158z" fill="#e82c2e" mask="url(#a)"/><path d="m87.4404451 28.3751053c-.0240727.1310526-.3425727.3515789-.712657.7926315-1.1123692 1.3244737-1.3173837 3.7513158-.1068721 5.6602632 1.2769099 1.9160526 3.8296715 2.9765789 6.3102151 2.5342105 2.4464186-.4086842 4.9589709-1.5836842 5.9239942-3.7594737.9721657-2.1210526.7592151-4.6260526-.5626657-5.9923684-1.3451599-1.355-3.0820959-1.7039473-4.2182733-1.6578947-.5864738 0-.4110872-.0697369-.4166424-.1213158-.0029099-.0392105-.1288285-.1313158.3999767-.1842105 1.0406803-.0434211 2.3538314-.0713158 3.9838954 1.02 1.698843 1.0676315 2.608049 3.568421 1.958616 5.9157894-.4954736 2.4910527-2.7342323 4.4907895-5.6337992 5.266579-2.8157093.7563158-5.5917383.2665789-7.405654-1.6034211-1.9287239-1.725-2.2080727-4.4586842-1.2822006-6.3007894.4796017-.9531579 1.1951686-1.4444737 1.277968-1.4947369.0518489-.033421.5161076-.273421.4840989-.0752631" fill="#221f1f" mask="url(#a)"/><path d="m96.7996628 27.5512105c-.5176948-.4226316-1.3171192-.5131579-1.7252965-.2173684-.2986599.2160526-.3325204.436579-.356593.7392105.0492034.3336842.254218.5781579.4518255.6852632.5288053.2847368 1.3017762.3797368 1.630064.8094737.3282878.4297368.621657 1.0481579.621657 1.0481579.2301453-.5889474.2875494-1.175.1891424-1.6510527-.1206279-.6057894-.2960145-.9894736-.8107994-1.4136842" fill="#fff" mask="url(#a)"/><path d="m89.956886 26.8704474c-.7772034-.4113158-1.3636773-.8747369-1.4618197-1.8323685 1.8655-.0207894 2.3749942 1.0955264 2.7538081 1.3773685.1066076-.2997369.3449535-.5357895.594939-.7228948.2846395-.2131579.6044622-.3778947.9398924-.505.2846395-.1089473.5859448-.1968421.8893663-.2231579.0531715-.0057894.0968198-.0268421.1457587-.008421.4251076.1618421-.2327907 1.0621052-.3997122 1.2321052-.3899244.3934211-.6719186.5273685-1.285375.8626316l.0817413-.0281579c.9946511.0321053 1.6007006 1.2252632 1.5485872 2.101579-1.0229564.0476316-1.7734419-.7586842-2.3892791-1.3257895-.3446889.9634211-1.0377703 2.3323684-1.9046511 2.3742105-.1909942-.7089473-.4616134-1.5968421.5835639-2.4965789-2.0215756 1.0978947-3.1228343.3010526-3.1228343.3010526.5637238-.9894737 2.4212878-1.2681579 2.9151744-1.1218421z" fill="#68bd49" mask="url(#a)"/><path d="m86.8922494 27.4743684c.1219506-.1326316.2790843-.2357895.4306628-.3392105.026718-.0194737.0574041-.0389474.0883547-.0586842.053436-.0336842.1095174-.0639474.1655988-.0918421.2875494-.1510527.6047267-.2486842.9229622-.3071053.2171831-.0407895.4502384-.0794737.6703314-.0528947.0156076.0023684.1544884.0107895.2148023.0136842-.0854447-.0321053-.1724767-.0626316-.1878197-.0684211-.0309506-.0136842-.1206279-.0613158-.1965495-.1089473-.0671918-.0447369-.1206279-.0834211-.1695668-.1252632-.0827994-.0618421-.1558111-.1326316-.2148023-.2094737-.1317384-.1676316-.238346-.3531579-.3198227-.5497368-.102375-.2528948-.0896773-.4326316-.1388808-.7063158 0 0-.0280407-.12.0156075-.1686842.048939-.0573684.1920524-.0223684.1920524-.0223684.84175.0878947 1.3213517.1365789 1.7406395.3726315.4983837.2636843.7941337.6168421 1.0118459.8747369l.0714244.0752631c.2454884-.3555263.6412326-.6152631 1.0073489-.8271052.1021104-.0573684.2034273-.1131579.307125-.1676316.2383459-.1228947.4909767-.2302632.7478401-.2889474.0515843-.0113158.1007878-.0223684.1513139-.0321052.0867675-.0210527.1698314-.0402632.2483983-.0544737.0309506-.0081579.0574041-.0152632.0883546-.0192105l.0714245-.0071053c.0661337-.0086842.1248604-.0126316.182529-.0152632.0587268-.008421.1177181-.0097368.178032-.0097368.0534361 0 .1685087-.0255263.2034273.0110526.2245902.2121053-.0462936.6555263-.0896773.7689474-.0968198.2481579-.2497209.4702632-.4309273.6639474l-.0460291.0505263c-.0309506.043421-.0547587.0755263-.0772442.095-.068779.0723684-.1372936.1365789-.2034273.195-.1767093.1802631-.4126744.3713158-.7742936.5821052.8880436.3686843 1.1644826.8734211 1.2597151 1.7807895.0253954.2439474.0309506.5413158-.0140203.6305263-.0378285.0768421-.2595088-.0026315-.4460058-.0126315-1.0689855-.0557895-1.5895902-.5968422-2.1519913-1.2863158-.1417907 1.4497368-1.1700378 2.3876315-1.8908954 2.4239473 0 0-.0997296.0152632-.140468 0-.0518488-.0165789-.0883546-.1002631-.1238023-.1771052-.1370291-.2957895-.1790901-.5023685-.1790901-.8194737 0-.481579.1108401-.8218421.3282878-1.2573684-1.1546948.3697368-1.5305989.1244736-2.4900669-.025-.1714186-.0263158-.2751163-.1323685-.325907-.1955264-.0515843-.0626315.1730058-.3836842.3132093-.5342105zm3.0156977.1744737c-.026189.0126316-.0626948.0205263-.0865029.0363158.0224855-.0097368.0489389-.0184211.0714244-.0268421zm.1753866.035c-.0023808.0334211-.0179884.0597368-.0322732.0847368-.0753925.1134211-.1330611.2176316-.1751221.3071053-.1190407.2623684-.3986541.6531579-.4097646 1.1163158-.0066133.3142105.0817413.7705263.1542239.7884211.0772442.02.1756511-.0260527.212157-.0373685.1838517-.103421.5750988-.4394737.7941337-.8318421.1359709-.2442105.1835872-.455.2439011-.6742105.1010524-.3668421.0899419-.435.2343779-.7002632.0253954-.0476315.0841221-.2094736.0997297-.2176315.064282-.0321053.1370291.0921052.2272355.1615789.0740697.0573684.1261831.1105263.2034273.1828947.2327907.2231579.2761744.3826316.5581686.6142106.1722122.128421.405532.2273684.534625.2886842.1317384.0626316.7502209.2221052.8877791.1171052.0547587-.1365789-.1232733-.5594736-.2298809-.8442105-.0830639-.1573684-.1753866-.2886842-.3282877-.4336842-.1179826-.1102631-.1978721-.1605263-.3380756-.2444737-.0925872-.0560526-.1907297-.1044737-.2454884-.1268421-.0658692-.0268421-.1206279-.035-.1838517-.0505263-.0391512-.0097368-.0743343-.015-.1095175-.0207895-.0531715-.0068421-.1460232-.0323684-.1206279-.1076315.0097878-.0276316.098407-.0989474.1222151-.1184211.0224855-.0207895.0629593-.0528947.0827994-.0655263l.0518489-.0321053c.0251308-.0168421.0518488-.033421.0769796-.0460526l.1558111-.0894737c.0827994-.0460526.1584564-.0947368.235436-.1463158.1124273-.0755263.2148023-.1621052.307125-.2568421l.1124273-.1147368.1529012-.1602632.0521134-.0515789c.1655988-.2497369.3465407-.5789474.4166424-.7857895.0854448-.2523684-.7716482.0168421-1.2597151.2218421-.2878139.1371053-.5695436.2957895-.8248198.4873684-.1124273.0878948-.2248546.1823684-.3198226.2928948-.0383576.0460526-.0759215.0936842-.1052849.1465789-.0156076.025-.0280407.0584211-.0423256.0918421-.0235436.0476316-.0460291.0952632-.0838576.1160526-.0912645.051579-.182529-.0963158-.2248546-.1423684l-.1960204-.2065789c-.2415203-.2918421-.5756279-.6881579-1.2851104-.9013158-.2327907-.0602632-.5428256-.19-.8613256-.1928948-.2216802-.0013157.20475.5944737.3798721.8539474.1489331.2139474.3468052.395.5150494.5373684.0338605.0294737.2118925.1286842.3354302.1884211.0391512.0171052.0701018.0307895.0939099.0378947.0560814.0236842.0714244.0363158.0687791.0447369.0068779.0765789-.0322733.1060526-.0912645.1252631-.0798896.0255263-.2216803.035-.2933692.0281579l-.1386163-.0013158c-.2510436-.0113158-.4502384.0263158-.8179419.0834211-.6171598.0952631-1.012904.2276316-1.3718779.7957895-.0772442.1226315.3550058.1757894.6060494.2021052.1581919.0044737.2999826.0223684.496532.0168421.291782-.0081579.4587035-.0223684.7404332-.0892105.3087122-.0713158.6555174-.2444737.7615959-.2763158.0507907-.0194737.0997296-.0515789.1531657-.0336842.0169302.0057895.0222209.0489474.0222209.0686842z" fill="#010101" mask="url(#a)"/><path d="m41.5857302 58.2255526c-.2187703-1.2657894-.3269651-5.4621052 2.180032-3.9060526.8359302.5065789 1.2007238 1.5907895.9806308 2.4955263-.0716889.3613158-.8711133 1.9157895-.652343 2.2423684.3267006.4328948 1.8530669-1.6997368 2.4702267-1.6997368.5822413 0 2.2908721 1.4818421 2.4368954 1.9886842.3618837 1.4092105-1.9276657 1.1568421-2.6178372 1.1207895-.2552762 0-.9819535-.036579-1.1628954.1810526-.3632064.4339474.5809186.5431579.8727006.5778947.8359302.18 2.3257907.8678948.7615959 1.3744737-.3618837.1089474-1.0171366.1089474-.6171598.5792106.2552761.3613157 1.0533779.2163157 1.4181715.2886842 1.3075959.2163158.8346075 1.3386842-.1822646 1.7363158-.8361947.325-1.8895726-.181579-2.5813314-.6868421-1.7073081-1.3755264-2.9067093-3.0378948-3.5982034-5.1005264z" fill="#68bd49" mask="url(#a)"/><path d="m41.5713924 58.3851316c-.1277703.0236842-.3745814-1.5602632-.3507732-1.7347369.0195756-.7744736.0899418-1.5797368.5134622-2.3221052.4825116-.9276316 1.8194709-.5439474 2.3342558-.016579.7028692.4981579 1.0086715 1.3897369.9274593 2.2102632-.0632238.8444737-.6047267 1.5213158-.6608081 2.1686842-.0378285.2289474-.1052849.0921053.3732587-.1994737.2298808-.1660526.5428256-.5036842.8176773-.763421.265064-.2231579.5750989-.6628948 1.1769157-.6042106.507907.1257895.7885785.3684211 1.1224215.601579.5441483.5581579 1.4028285.8413158 1.4729303 1.9915789-.2777617 1.2026316-1.5417093 1.0394737-2.20675 1.0857895-.685939-.1497368-1.8292588.1586842-1.6525495-.0560526.3804012.18 1.4856279.1897368 2.149346.7952631.2018401.0742106.4333081.6839474.1163953.9573684-.2190349.2234211-.43225.3028948-.6298575.3797369-.5023518.1128947-.8094768.3055263-.594939.0405263.1248605.3444737 1.2107762-.1160526 2.0972326.6055263.6875261 1.3426316-.6452006 1.9747369-1.4194942 2.1378948-.9539128.0852631-1.7382587-.3205264-2.4115-.7731579-1.2499273-1.0297369-2.3400756-2.1839474-3.0947936-3.6073685-.4684913-.9418421-.5666337-1.8028947-.3563285-1.8644736.2372878-.0736843.6777384.6113157 1.1041686 1.4694736.6621308 1.3105264 1.7073081 2.4297369 2.8001017 3.3660527.5679564.4076316 1.2652704.7228947 1.8641774.6657894.5571104-.0210526 1.2316744-.7505263.9763982-.9126315-.2931046-.4342106-1.1964913.1715789-2.1504041-.7255263-.0547587-.0784211-.2272354-.3771053-.0126976-.6492106.1753866-.1994737.3211453-.215.4319854-.2539473.2272355-.06.3915117-.0713158.5303925-.1313158.3407209-.2244737.5176947-.12.3044796-.2176316-.5290697-.4744737-1.126654-.3502632-2.1141628-.8036842-.4012994-.3210527-.0730116-.916579.2230029-.9463158.2735291-.1060526.4743111-.1060526.6817064-.1157895.4026221-.0168421.8123867.0307895 1.1729477.0431579.6872616.026579 1.6215989-.0639474 1.6245087-.5497368.0812122-.4592106-.7309098-1.0702632-1.2332616-1.5044737-.6732413-.53-1.0660756-.7647369-1.6245087-.0542105-.2888721.2607894-.4922994.4952631-.8766686.7910526-.1584564.0907895-.2483983.223421-.5317151.3563158-.3759041.2355263-.7475756-.4426316-.6086948-.5805263.1163954-.8836842.6578983-1.4918421.6944041-2.1871053.0798895-.6713158-.1727413-1.4402632-.7380524-1.8394737-.5216627-.4618421-1.3591802-.7073684-1.6972558-.0460526-.3550058.5931579-.4335726 1.3802631-.4547354 2.1202631-.0365058.2271053-.0208983 1.6547369-.0896774 1.6728948" fill="#010101" mask="url(#a)"/><path d="m39.1705797 58.1998421c.349186-.0110526.6481104-.1981579.8600029-.0473684 5.9128837 1.8768421 5.8861657 8.6578947 1.3269069 11.3231579-3.7061337 2.1686842-14.1335697 4.5342105-17.4664447.6839473 1.3451599-1.0786842 3.5545552-1.183421 4.8298779-2.1923684 1.3073314-1.0342105 2.3456308-2.9389473 3.4185843-4.1755263 1.3089186-1.5042105 3.9910378-4.8326316 6.5329535-5.5389474z" fill="#f68b1f" mask="url(#a)"/><path d="m34.3717317 61.1038421c-.5245727 1.226579-.7938692 2.5734211-.2370233 3.6031579.469814.8668421 1.5824477 1.4447368 2.6064622 1.6302632.1444361.0292105.2846396-.07.3113576-.2136843.0251308-.1452631-.0701017-.2818421-.216125-.3097368-.872436-.1578947-1.543032-.6278947-1.9385116-1.3605263-.4827762-.8876316-.4938867-2.0610526-.0338605-3.141579.0576686-.1352631-.0055552-.2926315-.1415262-.3489473-.1362354-.0584211-.2933691.0057894-.3507732.1410526" fill="#010101" mask="url(#a)"/><path d="m29.9480206 66.5867368c-.0632238 1.0578948-.0084651 2.0389474 1.3314041 2.5439474.1388808.0518421.291782-.033421.3351657-.1742105.0449709-.1397369-.0335959-.2889474-.1740639-.3336842-.8232326-.2568421-1.0771861-1.3273684-.8809012-2.48.0238081-.145-.1121628.0110526-.2565988-.0123684-.147346-.0252632-.3465407.3110526-.3550059.4563157" fill="#010101" mask="url(#a)"/><path d="m40.8206953 58.9726316c-.0827994-.0334211-.1515784-.0628948-.1907296-.0813158-.0645465-.0302632-.2301454-.0818421-.2833169-.1447369-.0814767-.0952631.048939-.1242105.0994652-.1228947.1724767.0052632.2973372.0363158.4727238.0834211 1.3721424.3521052 3.6796802 2.2947368 3.894218 4.6039473.4489157 2.6155263-.906032 5.9310527-4.6095203 7.3126316-3.0990262 1.1544737-6.5892995 1.8002632-10.1832704 1.81-1.7800552-.0276316-3.9124709-.4252631-5.2761482-1.1244737-.0867675-.0878947-.4587035-.3102631-.5512907-.3755263-.189407-.1352631-.454471-.4510526-.6311803-.7802631-.2357006-.4407895.2089826-.6278948.4433605-.8036843.1150727-.0878947.2425785-.1523684.3589738-.2052631l.1655989-.0755263c.0492035-.0221053.0997296-.0471053.1388808-.0707895.8443953-.3378947 1.7184186-.4494737 2.4887442-.6994737.7909593-.1560526 1.4168488-.5805263 1.9583517-1.1202631.2706192-.2697369.5203401-.5668422.7615959-.8752632.2412559-.3071053.4714012-.6207895.7028692-.9223684.8880436-1.2781579 1.8390465-2.4028948 2.7720611-3.3955263 1.8742296-1.9923685 3.8212064-3.6713158 5.5917383-4.0507895 1.8557123-.4036842 2.8601512.7923684 2.956971.9.0238081.0278947.1235378.135.0674564.1894737-.0476163.0447368-.162689-.0207895-.2132151-.0431579-.1277704-.0626316-.1724768-.0878948-.3253779-.1660527-.303157-.1560526-.7814361-.3518421-1.4562646-.41-1.3705552-.035-3.2209767 1.0634211-5.0137296 2.8673685-.9062965.8973684-1.8377239 1.9607894-2.7818489 3.0942105-.4616133.5707895-.8864564 1.21-1.3578575 1.8489474-.4743111.6421052-.9988838 1.2881579-1.6538721 1.8671052-.7113343.6213158-1.5824477.8739474-2.4255204 1.0776316-.4195523.1005263-.8375174.1910526-1.229029.3071053-.3886018.1168421-.7491628.2578947-1.0618431.4631579-.1235378.0336842-.1248604.0726315-.0968197.1326315.0378285.0836842.1457587.1968421.3002471.3207895.3028924.2444737.7560407.5068421 1.0689854.6394737.7462529.3694737 1.5948808.548421 2.445096.6921053 3.458.428421 7.0366279-.2571053 10.1970261-1.2489474 1.5726599-.5276316 3.1130465-1.1221053 4.1524041-2.1563158 1.0507325-1.0326316 1.7213285-2.4028947 1.8406337-3.7007895.276439-2.5886842-2.0916773-5.0239473-3.5365669-5.6365789" fill="#010101" mask="url(#a)"/><path d="m154.485833 55.8761579c-2.558846 1.2086842-4.484925 1.6186842-6.082716 1.1626316-.350773-.0992106-4.087857-2.5273684-5.408151 1.5210526-.754453 2.3039474-3.912471 3.3310526-6.18218 1.9634211-3.610637-2.1768421-5.715012-.9697369-6.942453 2.1281579-.698637 1.7652631-1.371878 2.1813157-2.16178 2.3742105-.474311.1126316-5.459735-.1957895-7.847691 5.2328947-2.216538 5.0492105-1.259451 8.4836842 1.626096 12.3410526 3.832581 5.121579 14.67375 1.5476316 15.739825-2.8668421.411087-1.7094736 2.986599-3.3213157 5.116105-2.5813157 2.509642.8718421 4.496035-1.9568422 3.953209-4.1868422-.618747-2.5289473.206337-3.7597368.959468-4.4952631 2.078715-2.03 4.128332-1.381579 5.350483-.9876316 1.627418.5247369 2.492447.5313158 1.543032-2.3152631-.888044-2.6684211-.781701-3.8586843-.154224-4.6781579.177767-.231579.84995-1.6268421 1.172683-1.9031579.189407-.1631579 1.847512-1.5852632 1.89116-1.6497369.082799-.1313158-.32141-.8555263-.373523-.943421-.054759-.086579-.445742-.7102632-.706838-.7647369-.166921-.033421-1.202046.5110527-1.492505.6489474" fill="#68bd49" mask="url(#a)"/><path d="m154.691191 55.6309737c.32141-.1631579 1.120834-.7118421 1.199401-.4018421.057669.2163158-.073011.3168421-.265064.4310526-.281729.1676316-.744665.361579-1.178503.6168421-1.618689.9531579-2.986599 1.3092105-4.605552 1.2226316-1.227442-.0642105-1.936924-.2707895-3.076276-.5652632-2.762009-.7157894-2.781849 1.6271053-4.080715 3.1971053-.796779.9655263-2.070779 1.3997368-3.274413 1.5294737-1.843015.2010526-2.983689-1.0563158-4.646026-1.5057895-2.290608-.6194737-3.555878.7173684-4.389428 2.6878947-.376168.8876316-.845982 1.9676316-1.776087 2.4184211-.969256.4689474-2.07607.3460526-3.102729.6447368-3.891573 1.1289474-6.17107 5.1031579-6.291698 9.016579-.104227 3.2976316 1.868145 7.5763158 5.134357 8.998421 3.479957 1.5168421 9.097091.3068421 11.532399-2.7842105.902328-1.1457895.899154-2.745 2.148023-3.653421 1.186439-.8610527 2.48266-1.2839474 3.948712-1.0507895 1.010259.1605263 1.86841.5205263 2.728677-.361579.514521-.5260526.966346-1.208421 1.029306-1.9663157.077244-.8818422-.239669-1.6955264-.262154-2.5692106-.025396-1.063421.164011-2.2215789.860003-3.0702631 1.704662-2.0678948 3.909561-2.2521053 6.346191-1.5194737 1.875553.5636842 1.251779-1.1707895.947035-2.1978948-.230145-.7731578-.305802-1.5142105-.383046-2.3207894-.098143-1.0410527.249985-1.7976316.822439-2.6223684.408177-.5873685.974546-1.2878948 1.547-1.7402632.206601-.1631579.858415-.8721053.98936-1.0102632.288608-.3836842.002381-.8136842-.328552-1.1568421-.212951-.2205263-.462936-.5276315-.284904-.67.230145-.1855263 1.095703.5247369 1.331404 1.0971053.043384.1002632.049152.1994737.049152.2776316.002961.1268421-.029312.1842105-.0928.3557894-.221681.5792106-.928253 1.2602632-1.356535 1.6663158-.612928.5792106-1.399919 1.6394737-1.676358 2.4492106-.203427.5986842-.200253 1.2139473-.100788 1.8252631.308713 1.0368421.823233 2.796579.629858 3.9157895-.01693.9197368-.52616 1.4110526-1.81127 1.065-.367439-.0628947-.747311-.1871053-1.117925-.3084211-1.402564-.3226315-2.808567-.3126315-4.006381.7647369-1.221886 1.0981579-1.627418 2.6094737-1.274 4.2592105.419553 1.945-.265064 4.8702632-2.711482 5.1284211-.510553.0544736-.956823.0113158-1.445154-.12-.161102-.0292106-.322204-.0710527-.483835-.111579-1.039357-.1718421-2.146436.0668421-2.989244.7213158-1.06343.8221053-1.156282 1.8268421-1.80016 2.8652632-2.175799 3.4957894-7.515965 5.4423684-11.678421 4.2744736-2.125273-.5973684-3.915116-1.6802631-5.085154-3.4094736-1.607579-2.4421053-2.645614-5.2107895-2.127919-8.1692106.525631-2.9963158 1.819471-5.9715789 4.391808-7.7494736 1.127977-.7786843 2.542181-1.2560527 3.901361-1.4178948.479866-.0571052 1.092793-.0152631 1.529276-.2692105.848892-.4968421 1.098349-1.4723684 1.492506-2.3042105 1.186968-2.4923685 3.368322-3.9073685 6.117633-2.6934211 1.264213.5568421 2.460704 1.5073684 3.932312 1.2268421 1.301776-.2486842 2.417055-.9015789 2.888456-2.1826316.454471-1.2421052 1.12348-2.1742105 2.418378-2.5902631 1.189613-.3807895 2.518372.1871052 3.573073.6907895 1.811005.8652631 4.550793-.1102632 6.214453-.8539474" fill="#010101" mask="url(#a)"/><path d="m150.156904 60.2768421c.246811.1968421-7.123924 3.9173684-8.491569 4.6597368-1.366323.7407895-5.865003 4.2452632-6.548297 4.8618422-.684616.6197368-6.462852 5.3981578-6.775796 5.7065789-.308713.3097368-.922963.7507895-1.295957.625-.371936-.1226316 6.085361-6.2857895 7.143236-7.0892105 1.0547-.8039474 4.073572-2.9921053 5.066636-3.611579.994916-.618421 4.183619-2.4060526 5.178006-2.9628947.994651-.5568421 5.413442-2.4378947 5.723741-2.1894737" fill="#010101" mask="url(#a)"/><path d="m165.116564 78.6858158v.7131579h.301834c.238346 0 .416378-.1131579.416378-.3921053 0-.1968421-.137558-.3210526-.397067-.3210526zm.330933-.2986842c.302099 0 .811064.093421.811064.6197368 0 .3921053-.281994.5163158-.41532.5776316l.457645 1.0731579h-.447857l-.394157-.96h-.342308v.96h-.424843v-2.2705263zm-1.698843 1.1765789c0 .9392106.756305 1.6410527 1.628741 1.6410527.881166 0 1.618954-.7118421 1.618954-1.6410527 0-.9294737-.726678-1.6621052-1.618954-1.6621052-.893599 0-1.628741.7228947-1.628741 1.6621052zm3.691055 0c0 1.1555263-.952326 2.0542106-2.062314 2.0542106-1.131945 0-2.074482-.9086843-2.074482-2.0542106 0-1.1555263.934072-2.0739473 2.074482-2.0739473 1.119512 0 2.062314.9071052 2.062314 2.0739473z" fill="#231f20" mask="url(#a)"/></g></svg>