<svg height="69" viewBox="0 0 255 69" width="255" xmlns="http://www.w3.org/2000/svg" xmlns:xlink="http://www.w3.org/1999/xlink"><mask id="a" fill="#fff"><path d="m0 .00009718h254.755141v68.70398032h-254.755141z" fill="#fff" fill-rule="evenodd"/></mask><path d="m33.503392.00009718c-15.4516348 0-28.54976102 9.93065493-33.30163483 23.72433802l52.13409173-11.1435-6.6792447 55.4682254c13.4652677-4.9388451 23.0850574-17.8044296 23.0850574-32.9358381 0-19.3855986-15.7734322-35.11322532-35.2382696-35.11322532zm-10.3038528 68.70407742h-.0039006l29.1402103-56.1232394-52.33594641 33.3799648c3.53879541 10.8645845 12.22537281 19.4026056 23.19963671 22.7432746zm226.1084508-13.2640352v-27.9581197c0-1.8586267-1.565592-3.2706972-3.432017-3.2706972-1.864474 0-3.355956 1.4120705-3.355956 3.2706972v27.9581197h-5.446663v-48.99971827l5.446663-1.70945071v16.20819718c1.043891-.3722113 2.163843-.6681338 3.355956-.6681338 4.850851 0 8.879168 3.9402887 8.879168 8.4748521v26.6942535zm-19.697896-32.2706197v32.2706197h-5.372065v-32.2706197h-4.40131v-3.9407746h4.40131v-12.78832397l5.372065-1.70945071v14.49777468h4.401309v3.9407746zm-17.087926 16.6566972c0-1.7842817-1.567543-3.2731268-3.432017-3.2731268-1.865449 0-3.357906 1.4888451-3.357906 3.2731268v9.1449296c0 1.7842817 1.492457 3.1963521 3.357906 3.1963521 1.864474 0 3.432017-1.4120704 3.432017-3.1963521zm0 15.6139225c-1.044866.4441268-2.163355.6681338-3.432017.6681338-4.849876 0-8.804082-3.9407746-8.804082-8.4772817v-6.5404225c0-4.7595422 4.103403-8.4039084 8.804082-8.4039084 1.268662 0 2.387151.224007 3.432017.6695915v-5.8742324c0-1.8586267-1.567543-3.2706972-3.432017-3.2706972-1.865449 0-3.357906 1.4120705-3.357906 3.2706972v4.0160916l-5.446176-1.7099367v-1.0422887c0-4.5345634 3.954206-8.4748521 8.804082-8.4748521 4.848901 0 8.878193 3.9402887 8.878193 8.4748521v26.6942535zm-20.518967-27.9581197c0-1.8586267-1.567543-3.2706972-3.432017-3.2706972-1.86545 0-3.357907 1.4120705-3.357907 3.2706972v21.4891268c0 1.7842817 1.492457 3.1963521 3.357907 3.1963521 1.864474 0 3.432017-1.4120704 3.432017-3.1963521zm-3.432017 28.6262535c-1.194064 0-2.313041-.224007-3.357907-.6681338v12.1930775h-5.446176v-45.6522465l5.446176-1.7099366v.6681338c1.044866-.3722113 2.163843-.6681338 3.357907-.6681338 4.8489 0 8.878193 3.9402887 8.878193 8.4748521v18.8851056c0 4.5365071-4.029293 8.4772817-8.878193 8.4772817zm-16.26588-32.9387535v32.2706197h-5.372065v-32.2706197h-4.40131v-3.9407746h4.40131v-12.78832397l5.372065-1.70945071v14.49777468h4.40131v3.9407746zm-17.087925 32.2706197v-27.9581197c0-1.8586267-1.567543-3.2706972-3.432018-3.2706972-1.865449 0-3.357906 1.4120705-3.357906 3.2706972v27.9581197h-5.446176v-48.99971827l5.446176-1.70945071v16.20819718c1.044866-.3722113 2.163843-.6681338 3.357906-.6681338 4.848901 0 8.878193 3.9402887 8.878193 8.4748521v26.6942535zm-22.384417-27.9581197c0-1.8586267-1.567543-3.2706972-3.432017-3.2706972-1.865937 0-3.357907 1.4120705-3.357907 3.2706972v11.8961831c0 1.7842817 1.49197 3.1963521 3.357907 3.1963521 1.864474 0 3.432017-1.4120704 3.432017-3.1963521zm-3.432017 40.819331c-4.850364 0-8.804083-3.9402887-8.804083-8.5487113v-1.9363732l5.446176-1.707993v4.9082324c0 1.9324859 1.49197 3.3445564 3.357907 3.3445564 1.864474 0 3.432017-1.4120705 3.432017-3.3445564v-8.5525986c0-1.8566831-1.567543-3.2687535-3.432017-3.2687535h-2.686521v-3.0481479c-3.580726-1.0442324-6.117562-4.2405845-6.117562-8.1050704v-9.2960493c0-4.5345634 3.953719-8.4748521 8.804083-8.4748521 1.268174 0 2.387151.2959225 3.432017.6681338v-.6681338l5.446176 1.7099366v16.0609648c0 3.6404789-2.387639 6.7649155-5.669972 8.0292676 3.058538.7439366 5.669972 4.1642958 5.669972 7.6565704v6.0248662c0 4.6084226-4.029293 8.5487113-8.878193 8.5487113zm-18.204953-12.8612113v-33.459169l5.446176-1.7099366v35.1691056zm0-41.9359648v-5.72457037l5.446176-1.71042254v5.79988731zm-10.147829 41.9359648v-48.99971827l5.446175-1.70945071v50.70916898zm-5.1034135-44.0919718c-1.1940631-.9664859-1.9395602-1.3382113-2.8347419-1.3382113-1.8654493 0-3.3579063 1.4869014-3.3579063 3.3450423v15.7630986h4.4027725v3.9402887h-4.4027725v22.3817535h-5.4461759v-40.7459577c0-4.6842254 3.9542065-8.62500001 8.8040822-8.62500001 1.9395603 0 3.6558127.66910563 5.7440823 2.08117606z" fill="#fff" fill-rule="evenodd" mask="url(#a)"/></svg>