<svg height="100" viewBox="0 0 100 100" width="100" xmlns="http://www.w3.org/2000/svg"><g fill="none" fill-rule="evenodd"><path d="m0 100h100v-100h-100z" fill="#1278aa"/><g fill="#fff" transform="translate(17 12.6)"><path d="m66.73499 59.21294v10.4796h-2.1333v-10.9761c0-.7312-.6134-1.2887-1.3396-1.2887-.7318 0-1.3146.5575-1.3146 1.2887v10.9761h-2.1328v-19.2409l2.1328-.6704v6.363c.4091-.1434.8441-.2613 1.3146-.2613 1.8975 0 3.4729 1.5448 3.4729 3.33"/><path d="m58.6179 55.47388v1.5499h-1.7237v12.6688h-2.1023v-12.6688h-1.7237v-1.5499h1.7237v-5.0223l2.1023-.6704v5.6927z"/><path d="m54.90432 22.12627c0 9.5081-6.0248 17.5945-14.454 20.694l4.1786-34.8516-32.6418 7.002c2.9717-8.6642 11.1757-14.9092 20.8526-14.9092 12.1883 0 22.0646 9.8867 22.0646 22.0648"/><path d="m48.86399 60.75737c.496 0 .9361.0869 1.3451.2662v-2.3071c0-.7313-.6139-1.2887-1.3451-1.2887s-1.3146.5574-1.3146 1.2887v1.5754l-2.1328-.6699v-.409c0-1.7852 1.5499-3.33 3.4474-3.33 1.8976 0 3.4729 1.5448 3.4729 3.33v10.4796h-2.1278c-.409.1794-.8491.2662-1.3451.2662-1.8975 0-3.4474-1.5499-3.4474-3.3295v-2.5729c0-1.867 1.6064-3.299 3.4474-3.299m0 1.5189c-.7312 0-1.3146.5833-1.3146 1.2842v3.5952c0 .7008.5834 1.2532 1.3146 1.2532s1.3451-.5524 1.3451-1.2532v-3.5952c0-.7009-.6139-1.2842-1.3451-1.2842"/><path d="m44.62893 7.9687-18.244 35.2658c-6.8689-2.1022-12.311-7.4624-14.5257-14.2903z"/><path d="m42.17903 67.15571v-8.4393c0-.7312-.6134-1.2886-1.3451-1.2886-.7313 0-1.3142.5574-1.3142 1.2886v8.4393c0 .7008.5829 1.2531 1.3142 1.2531.7317 0 1.3451-.5523 1.3451-1.2531m2.1277-7.9428v7.4163c0 1.7796-1.5753 3.3295-3.4728 3.3295-.4655 0-.9051-.0868-1.3142-.2662v4.7926h-2.1333v-17.9318l2.1333-.6704v.2613c.4091-.1434.8487-.2613 1.3142-.2613 1.8975 0 3.4728 1.5449 3.4728 3.33"/><path d="m36.18967 55.47388v1.5499h-1.7236v12.6688h-2.1021v-12.6688h-1.7235v-1.5499h1.7235v-5.0223l2.1021-.6704v5.6927z"/><path d="m29.91424 59.21294v10.4796h-2.133v-10.9761c0-.7312-.6136-1.2887-1.3451-1.2887-.7263 0-1.3144.5575-1.3144 1.2887v10.9761h-2.1278v-19.2409l2.1278-.6704v6.363c.4091-.1434.8488-.2613 1.3144-.2613 1.8975 0 3.4781 1.5448 3.4781 3.33"/><path d="m19.0198 63.38608v-4.6696c0-.7313-.6136-1.2887-1.3451-1.2887-.7262 0-1.3094.5574-1.3094 1.2887v4.6696c0 .7008.5832 1.2588 1.3094 1.2588.7315 0 1.3451-.558 1.3451-1.2588m2.1328 5.6366v2.3681c0 1.8106-1.5753 3.3556-3.4779 3.3556-1.8975 0-3.4422-1.545-3.4422-3.3556v-.7622l2.1328-.6698v1.928c0 .7572.5832 1.3146 1.3094 1.3146.7315 0 1.3451-.5574 1.3451-1.3146v-3.36c0-.7318-.6136-1.2842-1.3451-1.2842h-1.0484v-1.1967c-1.4016-.4091-2.3938-1.6673-2.3938-3.1863v-3.6466c0-1.7852 1.5447-3.33 3.4422-3.33.5013 0 .936.1178 1.3451.2612v-.2612l2.1328.6703v6.3063c0 1.4321-.936 2.6598-2.2197 3.1558 1.1967.2917 2.2197 1.6368 2.2197 3.0073"/><path d="m12.68264 55.88296v13.8096h-2.1328v-13.1393z"/><path d="m12.68264 50.30317v2.2812l-2.1328.6393v-2.2456z"/><path d="m8.71375 49.7812v19.9113h-2.1328v-19.2409z"/><path d="m5.72161 51.12134-1.1353 1.2582c-.4708-.3836-.7622-.527-1.1101-.527-.7312 0-1.3144.5834-1.3144 1.3147v6.1886h1.7238v1.5499h-1.7238v8.7868h-2.1328v-15.9983c0-1.8417 1.5447-3.3911 3.4472-3.3911.757 0 1.427.2659 2.2454.8182"/></g></g></svg>