<svg height="44" viewBox="0 0 214 44" width="214" xmlns="http://www.w3.org/2000/svg"><g fill="#0077a0" fill-rule="evenodd"><path d="m210.991056 28.4599532c-1.190425.9632432-2.345985 1.5703243-4.077622 1.5703243-2.597255 0-4.653698-2.1052613-4.653698-5.9251352 0-3.6399099 2.091509-5.6383423 4.653698-5.6383423 1.624436 0 2.922262.641964 4.040753 1.498973l2.670992-3.3905766c-2.128378-1.6422703-4.509629-2.3555856-6.855614-2.3555856-5.665389 0-9.850211 3.7469369-9.850211 9.8855315 0 6.388919 4.221691 10.1374415 9.850211 10.1374415 2.742727 0 4.978506-.8928829 7.108487-2.7488108zm-29.592914-6.209946c.505545-2.7842883 2.201916-4.2834595 4.367163-4.2834595 2.52532 0 3.463073 1.855928 3.463073 4.2834595zm4.221491-8.0666667c-5.375448 0-9.706143 3.7832072-9.706143 9.9218018 0 6.4243964 4.040953 10.1723244 9.743011 10.1723244 2.886997 0 5.593255-.8566126 7.974306-2.4980901l-2.201916-3.3194234c-1.622833.9997117-3.427807 1.6414774-5.375648 1.6414774-2.922262 0-4.474363-1.6058018-4.762702-4.8532792h12.772474c.108803-.5714055.180938-1.5711172.180938-2.3205046 0-5.139081-3.066332-8.7443063-8.62432-8.7443063zm-7.096465-5.35353149h-22.155011v4.78291889h8.335981v20.200955h5.447783v-20.200955h8.371247zm-27.206052 20.05825229c-.830753.9285585-2.056444 1.606-3.68088 1.606-1.334695 0-2.237382-.7850631-2.237382-1.9272793 0-2.4265406 2.922262-3.1761261 5.918262-3.3550991zm5.268247-.0711532v-7.9947207c0-3.9257117-2.165247-6.6025766-7.721833-6.6025766-2.633924 0-5.664989.8920901-8.264047 2.1766126l1.877108 3.8545586c2.381452-1.142018 4.329092-1.8916036 6.169332-1.8916036 1.84044 0 2.671193.8572072 2.671193 2.2842342v1.6777478c-7.180822.4996576-11.18651 2.6768648-11.18651 6.8529009 0 3.0334234 2.381452 5.0685225 5.774193 5.0685225 2.597255 0 4.402429-.9640361 6.025062-2.6776577 1.083425 1.8196577 2.599058 2.3563784 6.242869 2.3563784v-3.6054234c-.974421 0-1.587367-.4637838-1.587367-1.498973zm-26.827144-.6782342h-.072135l-4.112687-13.4907568h-5.231579l6.422004 19.1657658h5.665389l6.458873-19.1657658h-5.015375zm-17.792257-13.9553334c-2.41812 0-4.474563 1.2141622-5.881393 2.6768649l-.252672-2.2122883h-4.980309v19.1657658h5.268247v-13.4552793c1.15556-1.4278198 2.562189-2.2485586 4.186625-2.2485586 1.803571 0 2.52512 1.1776937 2.52512 2.8905226v12.8133153h5.303714v-12.6702162c0-4.318937-1.840641-6.9601262-6.169332-6.9601262zm-24.0016627 16.1325406c-2.8501274 0-4.4376948-2.463009-4.4376948-6.2462162 0-3.5332793 1.7683052-5.8886667 4.4376948-5.8886667 2.5988576 0 4.3304943 2.3553874 4.3304943 5.8886667 0 3.7832072-1.5875674 6.2462162-4.3304943 6.2462162zm0-16.0962703c-5.5916517 0-9.7780768 3.8902342-9.7780768 9.8143784 0 6.3175676 3.9335524 10.2085946 9.7780768 10.2085946 5.7739925 0 9.6708764-3.891027 9.6708764-10.2085946 0-5.9241442-4.1497566-9.8143784-9.6708764-9.8143784zm-20.1001705 15.8826126c-4.7641048 0-7.7583015-3.3550991-7.7583015-8.4941802 0-4.9609009 3.0677341-8.2091711 7.7583015-8.2091711 2.4533858 0 4.3290918.9283603 6.097397 2.3199099l2.9589308-3.7112613c-2.6341236-2.07057656-5.6651892-3.1771171-9.1651311-3.1771171-7.7214326 0-13.170618 5.3892072-13.170618 12.7776396 0 7.6022883 5.2682472 13.0634415 12.9898801 13.0634415 3.9335525 0 7.0718184-1.2498379 9.7794794-3.7483243l-3.2484719-3.4264505c-1.6947678 1.6422703-3.716146 2.6055135-6.2414663 2.6055135z"/><path d="m33.5427768 11.7820901c0 .485982-.3983446.88-.8896629.88h-20.8263278c-.4913183 0-.8896629-.394018-.8896629-.88v-.1018739c0-.1551892.1003877-.2929369.2492659-.3418919l10.7745394-3.54834232c.1811385-.05965766.3769045-.05965766.558043 0l10.780751 3.55032432c.1450711.0477658.2430543.1821442.2430543.3335676zm-5.0207847 17.4947567v-14.5970991c0-.4861801.3981442-.88.8894626-.88h1.9867135c.4915187 0 .8896629.3938199.8896629.88v14.5970991c0 .485982-.3981442.8798018-.8896629.8798018h-1.9867135c-.4913184 0-.8894626-.3938198-.8894626-.8798018zm-8.1005412 0v-14.5970991c0-.4861801.3981442-.88.8894626-.88h1.9867135c.4913183 0 .8896629.3938199.8896629.88v14.5970991c0 .485982-.3983446.8798018-.8896629.8798018h-1.9867135c-.4913184 0-.8894626-.3938198-.8894626-.8798018zm-8.2297827 0v-14.5970991c0-.4861801.3983445-.88.8896629-.88h1.9867135c.4913183 0 .8896629.3938199.8896629.88v14.5970991c0 .485982-.3983446.8798018-.8896629.8798018h-1.9867135c-.4913184 0-.8896629-.3938198-.8896629-.8798018zm20.7233352 3.6577478c0 .485982-.3981442.8798018-.8894626.8798018h-19.5711816c-.4913184 0-.8896629-.3938198-.8896629-.8798018v-.7236216c0-.485982.3983445-.8798018.8896629-.8798018h19.5711816c.4913184 0 .8894626.3938198.8894626.8798018zm-10.6751536-32.9345946c-12.28275841 0-22.23976965 9.84886486-22.23976965 21.9982162 0 12.1495496 9.95701124 21.9984144 22.23976965 21.9984144 12.2827584 0 22.2399701-9.8488648 22.2399701-21.9984144 0-12.14935134-9.9572117-21.9982162-22.2399701-21.9982162z"/></g></svg>