<svg height="75" viewBox="0 0 150 75" width="150" xmlns="http://www.w3.org/2000/svg" xmlns:xlink="http://www.w3.org/1999/xlink"><mask id="a" fill="#fff"><path d="m.00024523.32786885h35.88555857v35.98352455h-35.88555857z" fill="#fff" fill-rule="evenodd"/></mask><mask id="b" fill="#fff"><path d="m0 74.6721311h150v-74.26229503h-150z" fill="#fff" fill-rule="evenodd"/></mask><g fill="none" fill-rule="evenodd"><path d="m9.07340599 6.22942623v14.13934427c0 7.5 3.71975481 10.2868852 8.62438691 10.2868852 5.1907357 0 9.0735695-2.9918032 9.0735695-10.3688524v-14.05737707h-3.147139v14.26229507c0 5.2868853-2.330109 7.6229508-5.8446866 7.6229508-3.1884196 0-5.5994551-2.2950819-5.5994551-7.6229508v-14.26229507zm-9.07316076 30.08196717h35.88555857v-35.98360652h-35.88555857z" fill="#1b5eac" mask="url(#a)" transform="translate(76.021798 .081967)"/><path d="m114.114441 36.3934426h35.885968v-35.98360653h-35.885968z" fill="#1b5eac" mask="url(#b)"/><path d="m125.967139 30.409877v-10.2868852c0-3.9754098-.040872-6.8852459-.20436-9.9180328l.123025-.0409836c1.184877 2.5819672 2.779291 5.3278689 4.454632 8.0327869l7.602589 12.2131147h3.14673v-24.01639339h-2.901908v10.08196719c0 3.7295082.082153 6.6393443.368257 9.8360656l-.163897.0409836c-1.103542-2.5-2.53406-5-4.250681-7.8278689l-7.642643-12.1721311h-3.433651v24.0163934h2.901907z" fill="#fff" mask="url(#b)"/><path d="m114.114441 74.5905738h35.885968v-35.9840164h-35.885968z" fill="#1b5eac" mask="url(#b)"/><path d="m140.231608 51.352541c0 2.1721311-.653951 3.8934426-1.880109 5.1229508-1.634878 1.7213115-4.291553 2.622541-7.316077 2.622541-.940054 0-1.798365-.0405738-2.493188-.204918v9.6725409h-3.106267v-23.7295082c1.512262-.287295 3.433243-.4922131 5.926431-.4922131 3.065395 0 5.313351.6971312 6.702997 2.0086066 1.389646 1.1065574 2.166213 2.8688524 2.166213 5m-3.106267.3278688c0-3.1967213-2.247957-4.7540983-5.640327-4.7540983-1.348774 0-2.370573.1229508-2.901908.2459016v9.3442623c.653951.1639344 1.553134.2459016 2.574932.2459016 3.719346.0409837 5.967303-1.8442622 5.967303-5.0819672" fill="#fff" mask="url(#b)"/><g fill="#1b5eac"><path d="m101.280736 47.2541803c-2.1253409-1.9672131-5.2724799-2.9508196-9.7275207-2.9508196-2.4523161 0-4.7002725.204918-6.6212534.4918032v23.647541c1.5935967.2049181 3.3923705.2864754 5.6403269.2864754 4.6594006 0 8.3378747-1.1881147 10.6267032-3.4422131 2.207084-2.2131147 3.433242-5.4098361 3.433242-9.3442623 0-3.8934426-1.26703-6.7213115-3.351498-8.6885246zm.081744 8.770082c0 6.5168033-3.5971394 10.2459016-10.2179841 10.2053279-1.226158 0-2.3709809 0-3.147139-.1229509v-19.0163934c.8174387-.204918 2.0435968-.3278689 3.6371935-.3278689 6.5395095 0 9.7688006 3.5241804 9.7279296 9.2618853zm-25.3814718 18.6069672h35.8855588v-35.9836065h-35.8855588z" mask="url(#b)"/><path d="m45.2861853 47.1313115.1226158-.2049181c.613079-.4512295 1.226158-.9016393 1.7574932-1.4758196h.0817438c-.1226158-.0405738-.2861035.0413934-.4087193 0-.2861035-.122541-.3269755-.3684427-.3269755-.6553279l-1.226158-1.2709016-.0817439-.2049181c-.0817439.2463115-.2861035.4098361-.4495913.5741804 0 .1639344-.0817438.3688524.1226158.4918032.3678475.1229509.8991826.4098361.9809265.8602459-.1634878.4512295-1.0217984.8196722-.4904632 1.3118853.1634877.204918-.2043597.327459-.0817439.5737705" mask="url(#b)"/><path d="m26.2807357 37.295041c.0817439-.204918.1226158-.4508197.3678474-.5737705.0408719-.1639344-.2452316-.2459016-.2043597-.4098361.2043597-.3688524 0-.9426229.4904632-1.1065574-.3269754.0819673-.6539509.1229509-.9400544-.0819672l.1226158.2459017c.0408719.6557377.2861035 1.2704918.1634877 1.9262295" mask="url(#b)"/><path d="m26.2807357 32.7458197c-.1226158.4918033-.0408719 1.0245901-.2452316 1.4754098.3269755-.1639344.8583106-.0819672 1.226158-.0409836-.2043596-.1229508-.0408719-.4098361-.1634877-.5737705-.0408719-.2459016-.0817439-.5327869.1634877-.6967213-.0408719-.4098361.4087194-.6147541.4495913-.9836066.1226158-.409836.5722071-.1639344.8174387-.3688524.1226158-.0819672 0-.2049181 0-.3278689.2043597-.2868852.4904632-.2459016.7356948-.409836.1634878-.2459017.3678474-.5327869.653951-.6967213.613079 0 .613079-.8196722 1.1852861-.8196722-.7356948-.5737705-1.4713897-1.3934426-2.1662126-2.0491803-1.3487738 1.6393443-2.2888283 3.4426229-2.6566757 5.4918033" mask="url(#b)"/><path d="m34.4551226 43.1558197c.2043597-.2463115.4495913-.4098361.7356948-.4918033-.8991825.1639344-1.6757493-.4918033-2.4114441-.8196721-.4087193-.3278689-.9809264-.5741804-1.226158-1.0655738-.5722071.6963115-1.26703 1.4344262-1.9618529 2.0081967.3269755 0 .4904632.327459.7356948.4918033 1.4713897 1.2295082 3.3106267 1.8442623 5.027248 2.2540984l-.4904632-.2049181c-.3678474-.409836-.8583107-.9016393-.8583107-1.3938524.3678474-.122541.3269755-.4913935.4495913-.7782787" mask="url(#b)"/><path d="m38.1743052 41.885082c.2861035.0413934.0817438.3282787.2861035.409836.4087194-.1229508.6948229.3282787 1.0217984.0413935-.040872-.4512295.4904632-.4098361.7765667-.5327869.4495913-.2868853.9400545-.6561476.8991826-1.2295082l-.0817439-.0819672c-.3269754 0-.4495912.204918-.6948229.409836-.2861035.122541-.4087193-.3278688-.6539509-.204918 0 .0405738.0408719.0819672.0817439.0819672.0408719.0815574.0817438.2049181 0 .2864754-.3269755.2868853-.4904633-.1635246-.8174387-.1229508v.1229508c0 .0413935-.040872.1639345-.1226158.1233607-.2043597-.3282787-.6130791-.204918-.8174387-.4918033-.1226158-.082377-.2452316 0-.3269755.0819672-.0408719.1635246-.3678474 0-.2861035.2454918-.2452317.1229508-.2861036.3692623-.4495913.5327869-.3269755-.0405738-.4495913.2868853-.7356948.2868853.0408719.0409836 0 .1643442.0817438.1643442.1634878.0815574.3678474.1229508.5722071.0815574.3269755-.4508197.8174387-.0815574 1.26703-.204918" mask="url(#b)"/><path d="m38.1743052 30.9836066c.2043597.1229508.3269755-.1229509.5313351-.1639345.2861036.0409836.4904632.2868853.653951.4508197.1634877.0819672.3269755-.0409836.4904632-.0819672.1226158-.8196721 1.1444142-.6967213 1.5531335-1.4754098l-.2043597.0819672c-.0408719-.1229509-.2452316-.0819672-.2452316-.2459017.1634878-.1639344.3678474-.409836.5722071-.4918033-.8991825-.5327868-1.7983651-1.0245901-2.8201635-1.2704918-.4087193-.0819672-.8174387-.1229508-1.1852861-.2459016.1634878.5737705 0 1.3934426.1226158 2.0491803l.6948229.2459017c.2043597-.3278689.653951-.4098361.8583106-.7377049.1226158-.1229509.2861036 0 .3678475.1229508.0408719.2459016-.040872.5327869-.1226159.7786885-.2861035.5327869-.8991825.6147541-1.2670299.9836066" mask="url(#b)"/><path d="m48.6375613 37.704877c-.4087193 1.3114755-.8991826 2.6229509-1.7166212 3.7704919-.3269755.409836-.653951.9836065-1.0626703 1.1885245l.8991825.7786886c.0817439-.0409836.040872-.1229509.040872-.2049181 0-.1229508.0408719-.2459016.2043596-.2459016.4495913 0 .4495913.4508197.6948229.6967213-.0408719.3688525.2861036.6967213.1634878 1.0655738 2.493188-2.6229508 3.719346-5.8606558 3.9645776-9.4262295l.1226158-.1639345c-.8991826.0819673-1.839237.0409836-2.7384196.0409836l-.2043597-.0819672c.0817439.5737705-.0817438 1.147541-.1226158 1.7622951l.2861036.4098361c.0817438.1229508.0408719.3278688-.0817439.4508197-.1226158.0819672-.3269755.0819672-.4495913-.0409837" mask="url(#b)"/><path d="m46.2670708 28.852377c-.3269754-.614754-.8583106-1.1885245-1.3079019-1.762295l-.0408719.1229508c-.8991826.9426229-1.9209809 1.9262295-2.7792916 2.9098361.0817439.1229508.1634878.2459016.2861036.2868852.0408719-.2459016.2043597-.4508197.2043597-.6967213.2452316-.3278689.613079-.1229508.8991825-.0409836.4495913-.1229508.8991826.0819672 1.3896458.0819672.3269755.204918.3678474.6557377.6948229.8196721.1226158.1229508.0408719.2868853-.0817439.3688525.0817439.7786885.4495913-.1639344.8174387 0 .1634878.0409836.3678474.0409836.4904632.204918.040872.2868853.4087194.2459017.4495913.5327869-.0408719.1639344-.2043597.204918-.2861035.2868852.0817438.3278689-.2861036.4918033-.1634878.8196722.5722071.0819672.5722071-.5737705.8583107-.8606558-.1634878-.4918032-.2861036-1.0245901-.5722071-1.4754098-.3269755-.0819672-.5313352-.4508197-.8583107-.5327869-.613079-.2459016.1226158-.6557377 0-1.0655738" mask="url(#b)"/><path d="m32.3706131 39.9591803c1.0626703.8606558 2.2479564 1.3930328 3.5558583 1.6393443.0408719-.2463115-.0408719-.5737705.0817439-.8196721.1226158-.2049181.3678474-.2049181.613079-.1639345.1226158 0 .2043597-.1643442.1226158-.2459016-.2861036-.0819672-.1634878-.4098361-.2452316-.5737705 0-.082377.1634877-.082377.1226158-.204918-.2043597-.1643443.0817438-.3278689-.0817439-.4922131.0408719-.0405738.0817439-.0819673.1226158-.122541-.613079.2454918-1.226158-.1229508-1.7574932-.3692623-.2452316-.1635246-.6539509-.2864754-.6948229-.6147541-.4495912.6967213-1.226158 1.3114754-1.839237 1.9676229" mask="url(#b)"/><path d="m31.3897275 36.8852049c-.1226158-.0409836-.1226158-.0409836-.2043597.0409836-.0817438 0-.1226158.0409836-.1634877 0 0-.5737705-.613079-.2459016-.8583106-.5327869.2452316.4918033.4087193 1.0655738.6948229 1.5983607.1634877.4508197.5722071.8196721.7356948 1.2704918.1634877-.3688525.5313351-.6557377.8174387-.9836066.0408719-.1229508 0-.2459016-.0817439-.3688524-.0817439-.2049181 0-.5327869-.1634877-.6967213-.2452316.0819672.1226158.3278688 0 .4918032-.1226158.0819673-.2452316-.0409836-.2452316-.1229508-.2043597-.0409836-.4087194-.2459016-.4495913-.4508196.2043597-.0819673-.0408719-.1639345-.0817439-.2459017" mask="url(#b)"/><path d="m26.076376 24.3852049v.2049181l-1.0626703 1.352459c-1.7574932 2.3770491-2.5749319 5.1639344-2.8201635 8.1967213l2.6975477-.0409836.2452316.0819672c-.0817438-.0409836-.0817438-.1639344-.1226158-.2868853.2043597-2.7868852 1.1852861-5.3278688 3.147139-7.4180327-.7356948-.6557378-1.4713897-1.3524591-2.0844687-2.090164" mask="url(#b)"/><path d="m28.5694005 22.3770492c-.613079.409836-1.1852861.9836065-1.7983651 1.352459.7356948.4508197 1.3487739 1.2295082 2.0027248 1.8442623l.0817439.204918c1.6757493-1.5983606 3.719346-2.5409836 5.9264305-2.9918033.5313352-.0409836 1.0217984-.2459016 1.5531335-.1229508-.0408719-.9426229-.1226158-1.9262295-.0408719-2.8688524-2.8610354.1639344-5.4359673 1.0245901-7.7247957 2.5819672" mask="url(#b)"/><path d="m36.3759809 50.6557377.0817439-.1639344-.2861035.0819672c-3.8419619-.2459016-7.2343325-1.6393443-10.054496-4.3442623l-.0408719.1229508-2.0435967 2.0491803c3.0653951 2.6639345 6.5395095 4.3852459 10.5040872 4.9180328.613079.1229509 1.3487738.0409836 2.0027248.2459017l-.1634878-.2459017z" mask="url(#b)"/><path d="m23.7056812 36.9262295c.5313351 0 .5722071-.6557377 1.0626703-.6967213.2452316 0 .4087193.3278688.5313351.4508197-.2861035-.3688525-.2861035-.9836066-.2043596-1.4344263l-.2043597.0819673c-.8991826-.0409837-1.880109.0409836-2.7384196-.0819673l.1226158.1639345.2043597 1.8032787c.0817438.6967213.4087193 1.352459.3678474 2.0491803.0817438-.1639344 0-.4508197.2861035-.4918033-.1226158-.204918.2043597-.4098361 0-.5327869.0817439-.4918033.1634878-.9836065.5722071-1.3114754" mask="url(#b)"/><path d="m33.269673 37.1311475c-.0817438.2459017-.2452316.4918033-.4087193.6557377.2452316-.1229508.4087193-.4508196.7356948-.4918032z" mask="url(#b)"/><path d="m36.09 46.7214754c-2.4114441-.0819672-4.4959128-.9836065-6.3760218-2.377459.0408719.2463115.3678474.4098361.2861035.6967213-.1634877.2872951-.4904632.2872951-.7765667.2872951-.5722071-.0823771-.9809264.3688524-1.5122616.4098361-.4904632.1225409-.6539509-.4508197-1.1035422-.4098361 2.7384196 2.3766393 5.8855586 3.8934426 9.5640327 4.0983606l.2861035.2049181-.1226158-.3692623v-2.622541z" mask="url(#b)"/><path d="m27.6703406 35.2048361-.0817439.5327869c-.1226158.2868852-.5313351.0819672-.6948229.2868852-.1226158.204918 0 .4098361.1226158.5737705-.2861035.6147541.6130791.8196721.6130791 1.3934426.2861035.3688525-.040872.8606557.3678474 1.1885246.1226158.6147541-.0817439 1.5163934.4904632 2.0086066l.0817439.6147541c.1226158.4504098-.4904633.327459-.4087194.6963114.1226158-.0815573.1634878.0819672.1634878.1233607.7765667-.8610656 1.6348773-1.8036885 2.5340599-2.5823771l-.3678474-.3688524c-.6948229-1.0655738-1.26703-2.1721312-1.5122616-3.4016394l-.2861035-.1639344c0 .2868853-.1634878.5327869-.1226158.8606557l-.0817439.1229509c-.2452316 0-.3678474-.1639345-.5313352-.2868853-.0408719-.0819672-.1634877-.2868852 0-.3688524.1226158 0 .1634878.0409836.2452316.0819672.0817439-.1229508.040872-.2868853.0817439-.4098361 0-.2459016-.2043597-.4508197-.0408719-.6557377.2043597-.0409836.3269755.204918.4087193.3278689.2043597.0819672.3269755-.0819673.4904632-.1639345 0-.1639344.2043597-.409836-.0408719-.4918032.1634877-.3688525.0408719-.7786886 0-1.147541-.1226158-.3278689-.4495913-.2868853-.7356948-.2459017-.8174387.2459017.1226158.8606558-.0817439 1.352459-.1226158.2868853-.4087193 0-.613079.1229509" mask="url(#b)"/><path d="m26.1989101 23.0328279.0408719-.1229509c2.9019074-2.6229508 6.253406-4.0983606 10.0953679-4.262295l-.0817439-.2459017-.0408719-2.3770492.1226158-.2459016c-3.9645777.1639344-7.4795641 1.5163935-10.626703 3.7704918-.6130791.4098361-1.1444142 1.0245902-1.7574932 1.3934426h.0817438c.7765668.5737705 1.5122616 1.3934427 2.1662126 2.090164" mask="url(#b)"/><path d="m36.2125341 23.7294262c-2.4931881.1639345-4.6594006 1.2295082-6.5803815 2.7868853.7356948.5327869 1.3896458 1.352459 2.0844687 1.9672131.0817438-.0409836.1226158-.1229508.1634877-.204918.9400545-.6557377 1.9209809-1.2704918 3.0245232-1.5573771.4904632-.0409836.9400544-.2868852 1.4713896-.1639344-.1226158-.942623-.1226158-1.9672131 0-2.9098361z" mask="url(#b)"/><path d="m36.3350681 27.6638934c-1.5940054.2459017-3.0653951.7786886-4.2098092 2.0081968h.2452316c.2452316.204918.6539509.1639344.8174387.4918032.0817438.1639345-.1634878.1229509-.1634878.2868853.040872.0409836.1226158.0409836.1634878.1229508.1634877.0409836.1226158-.1229508.2043596-.204918.2452316-.2459017.2861036.2459016.5313352.2459016.1634877-.0819672.4087193-.1229508.5313351.0819672.1634878-.1639344.4904632-.0409836.5313352-.2868852.2861035-.3278689.1226158-.8196721.5722071-1.0245902.1634877.0819672 0 .2459017.0408719.3688525.2861035.1229508.653951-.2459017.8991826.0819672-.2452316-.6557377-.1634878-1.4754098-.1634878-2.1721312" mask="url(#b)"/><path d="m36.4578065 32.0492213c-.3269754.4918033-.8174387.6147541-1.2670299.7377049-.1226158.1639345-.1226158.5327869-.4087194.4918033-.0817438.204918-.4087193.3278689-.2861035.6557377-.1316077.2639344-.1074932.6057377-.1344687.9221312.0625341-.1368853.2382834-.1508197.3388284-.1844263.1226158.0409836.0408719.2049181.0817438.2868853.4495913.1639344-.1226158.4918033-.1634877.7377049-.1226158.204918 0 .6147541-.3678474.5737705-.040872 0-.1226158-.0819672-.0817439-.1639344h-.0408719c0 .1639344.1226158.3688524.2861035.4508196.2861036-.204918.2861036-.6147541.6948229-.6557377.2043597-.204918-.1226158-.5737705.2043597-.7377049.5313351 0 1.0626703-.204918 1.4713896.204918-.0408719.1639345-.1226158.2459017.040872.4098361-.1226159.204918-.1634878.4508197-.3678475.6557377.0817439.1229508.040872.2868853-.0817438.3688525-.1226158.6147541-.8174387.3278688-1.2261581.5327869.6130791.4508196 1.3487739.6147541 2.1662126.5737704.4087193 0 .2452316-.5327868.4495912-.7786885.1226159-.6967213.7765668-.204918 1.1444142-.409836.1226158-.2868853.2861036-.5737705.3269755-.9016394-.2861035-.1639344-.3678474-.4508197-.2861035-.7377049-.2043597-.2459016-.1634878-.6557377-.5313352-.6967213-.0408719-.0819672 0-.204918.0408719-.2459017 0-.204918.2452316-.2868852.2861036-.4508196-.2452316-.1229508-.1634878-.4508197-.1634878-.6557377-.3678474.1229508-.4087193-.3688525-.6948228-.4918033-.0817439-.204918-.3269755-.2459016-.5313352-.2868853-.4495913.2459017-.5313351-.3688524-.8991826-.4918032-.0408719-.1229509-.1226158-.2868853 0-.3688525.1634878-.1639344.4087194-.0409836.6130791-.0409836l-.1634878-.0819672c-.1634877-.1639344-.4904632-.0819672-.6948229-.0409836.2043597.204918.1226158.5737705.2452316.8196721" mask="url(#b)"/><path d="m33.6376839 34.4261885-.0817438.1639345c-.1226158.0409836-.2043597-.0409837-.2861036-.1229509-.0817439-.0409836-.2452316-.0819672-.3269755 0-.1226158.2049181-.3269754.4098361-.2861035.6967213-.0817439.1639345-.3678474.0819673-.3269755.2868853.3269755 0 .653951-.0409836.9809264-.1229508.2452317.0409836.4087194-.1229509.653951-.1229509.0817439.0409837.1634877.1229509.1226158.2459017h.0817439c.15-.1127049.2252043-.2938525.1737057-.45-.0040872.0266393-.0044959.0553279-.010218.0811475-.5722071.3688525-.4087193-.4918032-.6948229-.6557377" mask="url(#b)"/><path d="m34.3427657 35.0009426c.0077656-.047541.0143051-.0954918.0183923-.1446721-.0134877.029918-.0286103.0586065-.0286103.1028688.0065395.0131148.0057221.0278689.010218.0418033" mask="url(#b)"/><path d="m21.3351907 34.1802459-.0817438-.3688525c.1634877-3.1557377 1.1852861-5.9836065 2.9427793-8.4836065.4495912-.4918033.7356948-1.147541 1.3079019-1.5163935-.653951-.6147541-1.3487739-1.3114754-2.0027248-1.9672131l-.0817439-.2868852c-2.8201635 3.1557377-4.5776567 6.7213115-5.0681199 10.8196721-.1226158.5737705-.0408719 1.1885246-.0817439 1.8032787 1.0217984-.0819672 2.0844687-.0819672 3.0653951 0" mask="url(#b)"/><path d="m60.081703 47.3362295c-1.3079019.8606557-2.6566758 1.6803279-3.9237057 2.622541v-.122541c1.9209809-3.2381147.9809264-7.6643443 2.1662125-11.1885246l.4495913-1.1889344c-.2452316 2.2135246.6948229 4.0983606.6539509 6.3118852-.0817438 1.3524591-.4904632 2.5409836-1.1852861 3.6065574h.1226158c.9400545-1.2295082 1.6757494-2.5819672 2.7792916-3.7709016 1.7166213-1.6799181 3.4741144-3.3606558 3.6784741-5.6553279.5722071 3.8110656-1.5531335 7.2127049-4.7411444 9.3852459zm-4.2098093 5.9836066c-1.6757493.4504098-3.5149863.6147541-5.1498637 1.1885246 2.7792915-2.4180328 2.6566757-6.1065574 4.4959128-8.9754099.613079-.8196721 1.1035422-1.6393442 1.7574932-2.4184426-1.1444142 2.2954918-.653951 5.2463115-1.9618529 7.4590164-.4904632.8610656-1.226158 1.7217213-2.0027248 2.4184426.2452316 0 .4904632-.2463115.6948229-.3692623 2.1253406-2.1311475 4.9046322-2.7045082 7.1934605-4.4258197.8991826-.7377049 1.7574932-1.6803278 2.1662125-2.7463114-.4087193 3.525-3.9237057 6.8036885-7.1934605 7.8692623zm-1.839237 3.4012295c-3.3106267 1.2709016-6.6621254-.2868853-9.8501363-.8196722l-.613079-.0819672c1.5122616-.3278688 2.9836512-.8196721 4.2098093-1.884836 1.7983651-1.7217213 3.3923706-3.4836066 5.3542234-4.8360656-1.4713896 1.8848361-1.6348774 4.5901639-4.0463215 5.8196721-.613079.4098361-1.3487739.4508197-2.0027248.7782787.8991826 0 1.7166212-.2868852 2.5749319-.3684426 3.2697547-.5331967 6.9891008 0 9.2779291-2.7872951-.8583106 1.8442623-2.9836512 3.4836066-4.9046321 4.1803279zm-3.1880109 3.0737705c-2.9427793 1.1069672-6.0490463-.0405738-8.3787466-1.8028689-.9400545-.6147541-1.7574932-1.4758197-2.9836512-1.3934426-.4495913 0-.8583107 0-1.2261581.122541 2.2479564 1.0659836 4.3324251 2.5004098 6.253406 4.3446721-.3269755.3684426-.7356948.6963115-1.1444142 1.0245902-1.839237-2.0081968-3.8828337-3.8934427-6.1716621-5-.4495913.0405737-.8583106.3278688-1.26703.5327869-1.839237 1.1885245-3.6784741 2.7045082-5.0681198 4.5487704l-1.1852861-.9831967c1.8801089-1.9262295 4.0054495-3.4016393 6.2942779-4.4676229-2.2479564-.6967213-3.7193461 1.1889344-5.4359673 2.1315574-2.0027248 1.3934426-4.8637602 2.0491803-7.2752044 1.1065573-1.3079019-.4918033-2.5340599-1.2295082-3.4741144-2.3770492 1.880109 1.3110656 4.7002725 1.4344263 6.866485.5733607 2.9019073-1.270082 5.8855586-2.8688525 9.359673-2.0897541.5313352 0 1.0626703.5733607 1.5940055.0819672 2.5749318-.6561475 5.5177111-.204918 7.7656675.9831967l2.2888284.9020492c2.1253406.7786885 4.9046321.5737705 6.7029973-.7377049-.8991826 1.147541-2.1662126 2.0077869-3.5149864 2.4995902zm-35.6811989-7.0077869c2.6158038 2.9918033 6.9073569 2.0077869 10.4223433 2.7868852.4904632.0819672.9400545.2868853 1.4713896.2049181-.4087193-.2872951-.9809264-.2459017-1.4305177-.4922132-2.7384196-.9831967-3.1471389-3.9340163-4.6594005-5.9426229 1.9209809 1.2709016 3.5149864 2.9918033 5.2724795 4.6311475 1.26703 1.1065574 2.7792916 1.6393443 4.373297 1.967623-.3678474.1229508-.8991825.0815574-1.3079019.204918-2.8610354.6963115-6.0899182 1.8852459-9.1144414.8196721-1.9618528-.6561475-4.0054496-2.2131147-5.0272479-4.1803278zm-4.2098093-6.9266394c1.6348774 3.7299181 5.7629428 4.0163935 8.5013624 6.3118853.4904632.4504098 1.0217984.8196721 1.5940054 1.1065574l.040872-.0413935c-.613079-.5733606-1.3487739-1.2295082-1.7983651-1.9668033-1.5940055-2.2540983-1.0626703-5.4102459-2.2479564-7.8278688 1.1035422 1.3110656 2.0844686 2.6639344 2.7384196 4.179918.9809264 2.4184426 1.3487738 5.2049181 3.6376022 7.0086066-2.4523161-.8196722-5.3542235-.5741804-7.520436-2.0905738-2.3705722-1.475-4.4959128-3.975-4.9455041-6.6803279zm-1.75749319-7.5405737c.24523161 3.2786885 3.76021799 4.9995901 5.39509539 7.704918.3678474.5733607.7356948 1.147541 1.226158 1.6393443-.0817438-.3278689-.4087193-.6561476-.5313351-.9840164-.5722071-1.1471312-.7765668-2.4995902-.653951-3.8520492.1634878-1.6807377.8583106-3.2377049.5722071-5 1.4305177 3.1143442.9809264 6.9672131 1.7983651 10.3278688.2043597.737705.613079 1.3930328.8991826 2.090164-2.9427793-2.0086066-6.9482289-3.9344263-8.25613081-7.5819672-.49046321-1.3118853-.57220708-2.8688525-.44959128-4.3442623zm.12261581-6.0245902c.16348774-.7377049.28610354-1.4754098.61307902-2.1721311-.61307902 3.0737704 1.47138966 5.3278688 2.16621256 7.9918032.2861035.9831968.3678474 2.090164.7765667 3.0323771.040872 0 .0817439 0 .0817439-.0405738-1.0217984-2.8688524.4495913-5.4922131 1.9209809-7.704918.3678474-.6147541.5722071-1.2709017.7356948-1.9672131.1634878 1.2704918-.1634877 2.7868852-.3678474 4.0983606-.3678474 1.7209017-.8991825 3.3196722-1.3487738 4.9590164-.2861035 1.0245902-.2452316 2.2127049-.0817439 3.2786885l-.1634877-.1229508c-1.0626703-2.0081967-3.2288828-3.525-3.84196187-5.7377049-.53133515-1.7213115-.85831062-3.729918-.49046321-5.6147541zm1.10354228-3.3196721c-.040872-2.3360656.8991825-4.2622951 2.2888283-5.9836066.0408719 0 .0817439-.0409836.1226158-.0409836-1.5122616 2.295082-.2452316 5.1639344-.3269755 7.7868853l-.2043597 2.6639344c.040872 0 .040872.0819672.0817439.0819672.0817439-.2868853.1226158-.6147541.1634878-.9016394.3678474-2.1311475 2.2070844-3.6885245 3.8419618-5.1643442.3269755-.3684426.653951-.7782787.8174387-1.2295082-.1226158 1.0659836-.4495913 2.1315574-.8991826 3.1561475-1.2670299 2.4590164-3.5967302 4.5081968-4.0463215 7.3360656-.1634877-2.7868852-2.0027248-4.8360656-1.839237-7.704918zm3.9645776-7.9102459c.6948229-.8602459 1.5940055-1.475 2.6158038-1.7618853-1.9618528 1.3520492-1.839237 3.7704918-2.4523161 5.7786885-.2043596.737705-.5313351 1.4344263-.6948228 2.1721312l.0408719.0409836c.3269755-.8606557.8991826-1.6803279 1.5940054-2.3770492 1.3896458-1.2704918 3.4332426-2.0901639 4.1280654-3.9754098-.0408719 2.6229508-2.2479564 4.7131147-4.332425 6.1885246-.8583107.7786885-1.7166213 1.6393442-2.1662126 2.6229508-.0408719-.6557377.0817439-1.352459.040872-2.0491803-.2043597-2.295082-.4087194-4.9180328 1.226158-6.6397541zm7.9291553-4.4258197c-1.4713896 1.2704918-2.4523161 2.9098361-3.5149864 4.3852459-.9809264 1.1885246-2.2070844 2.0081967-3.3106267 3.0327869.5722071-1.2295082.6130791-2.704918 1.4305178-3.8118853 1.226158-2.0897541 3.4332425-2.827459 5.3950953-3.6061475zm5.7220709.1639344c2.7384196-1.352459 5.7220708-2.0905737 8.9918256-2.1311475 7.4386921 0 14.5504087 4.3852459 17.7792915 11.3110656 2.0435968 3.9758196 2.6158038 9.4676229 1.26703 13.8938524-1.3487738 5.2864754-5.7629428 10.6557377-10.9536785 12.8278689-5.8446866 2.8278688-14.1008174 2.1311475-19.2915531-1.5987705-7.1934605-4.9586066-10.1362398-13.4831967-7.9700272-21.9258197 1.3487738-5 5.3133514-10.0409836 10.1771117-12.3770492zm27.46594 1.6393443c1.4305177 1.3114754 2.0844687 2.9918033 2.53406 4.7131147l.2452316.5733607c-2.0844687-1.5159836-4.0054496-3.5651639-5.3542235-5.6963115l-1.6348773-1.6807377c1.4305177.6147541 2.9836512.9840164 4.2098092 2.0905738zm5.1089918 4.7540983c.4495913 2.090164-.2043596 4.0983607.2043597 6.1885246-1.1444141-2.2131147-3.5149864-3.2786885-5.1907357-5.0413934-.9400545-1.0651639-1.3896458-2.3356557-1.5940054-3.7290984.9400545 2.2946722 3.4741144 2.7868853 4.9455041 4.7131148.4904632.4504098.6539509 1.0651639.9809264 1.557377l.0408719-.0409836c-.8583106-1.8032787-1.1444141-3.8114754-1.7166212-5.7377049-.2861036-.8196721-.8991826-1.6393443-1.6757493-2.1721311 1.9618528.4508196 3.6376021 2.4590164 4.0054495 4.262295zm1.26703.4918033c1.7574932 2.3770492 2.1253406 6.147541.8583106 8.8934426-.4904632 1.147541-.8174386 2.3770492-.9809264 3.6471312-.0817439-.204918-.1226158-.5323771-.2043597-.7782787-.6948228-2.6639344-3.2288828-4.5495902-4.2506812-7.0901639-.3269754-.8196722-.613079-1.6803279-.7765667-2.5823771 1.1035422 2.0491804 3.8419618 3.115164 4.5776567 5.3692623.2861035.5733607.2861035 1.2704918.4904632 1.8852459.0408719 0 .0817438-.0409836.0817438-.082377-.3269754-2.3356558-.2452316-4.7536886.0817439-7.0487705 0-1.2295082-.1226158-2.4590164-.8174387-3.4020492.4087194.2872951.613079.7790984.9400545 1.1889344zm1.6348774 15.4094263c-1.0217984 1.4758196-2.2888283 2.8688524-3.2288828 4.3446721.1226158-1.1885246.2452316-2.6639344-.2043597-3.7704918-.8174387-2.4184426-1.5122616-4.877459-1.7166213-7.5413935l.040872-1.0245901c.613079 2.7053278 3.2697547 4.5905737 3.106267 7.6233606.0408719.7377049-.1634877 1.352459-.2861035 2.0077869l.0408719.0413935.1226158-.1233607c.4087194-1.475.5722071-3.0733607 1.1852861-4.4668033.8583106-2.0086065 1.9618529-4.0577869 1.5122616-6.4754098 1.26703 2.8688524.8583106 6.6803279-.5722071 9.3848361zm-63.51498637 35.5737704h74.05994547v-74.26229504h-74.05994547z" mask="url(#b)"/><path d="m23.256049 47.499918 1.9618529-2.0491803.2452316-.0819672c-.3269755-.2459016-.613079-.6147541-.8991825-.942623-.3269755-.0819672-.653951-.2868852-.8174387-.6147541-.1226158-.0819672 0-.2868852-.1226158-.3684426l-.1226158.1635246c-.3269755.1639344-.4495913-.1635246-.6948229-.3278688-.2861036-.1639345-.1634878-.7786886-.5722071-.6553279-.1634878 0-.2452316-.204918-.3269755-.2872951-.4087193.0409836-.4904632-.3688525-.6948229-.5737705-.0408719.1229508 0 .2463115-.1226158.2868853-.4087193.1229508-.5313351-.3688525-.8174387-.5737705-.0408719.0409836-.1226158.0819672-.2043597.0819672-.2452316-.2049181-.4087193-.4918033-.4087193-.8196721-.3269755-.3684427-.1634877-.942623-.1226158-1.3930328.0817439-.1233607.2452316-.1643443.2043597-.3282787.1226158-.2049181.3269754-.2459017.5313351-.2459017.0817439.0409836.1634878.1229509.2043597.2049181.1226158-.0819672.4087193 0 .2861035-.2868853.1634878-.1635246.4087194-.204918.653951-.2459016.1634877.204918.2452316.409836.4495913.6147541l-.1226158-.2049181c-.2452316-.9422131-.4495913-1.9262295-.4904632-2.9918032 0-.0819672-.1226159-.1229508-.040872-.1639345v.0409837c0-.2459017 0-.4098361.040872-.5737705l-.2861036.0819672h-2.7384196c.1634877 3.1557377.9809264 6.0245901 2.4114441 8.6885246.6948229 1.3114754 1.7166213 2.5 2.6158038 3.5655737" mask="url(#b)"/><path d="m44.4687466 41.0245902c.0408719.3278688-.3269755.4918032-.2861035.8196721-.1226159.1639344-.3269755.1639344-.5313352.1639344-.7765668-.2868852-1.5940054-.4918033-2.4523161-.5737705-.0817438 0-.1226158.0819672-.2043596.2049181.3269754.204918.7765667.204918 1.1444141.3688524.3269755.0819672.5722071.4918033.9809265.3688525.3678474-.2049181.9400544.1229508 1.1852861-.2459017-.040872-.3688524.2861035-.6147541.4495912-.9426229l.1226158-.0409836c.2043597.204918.2043597.4918033.2861036.7377049.2861035-.3278689.4904632-.6557377.7356948-.9426229.653951-.9836066 1.1852861-1.9672132 1.4305177-3.0737705-.2452316 0-.5313351.0409836-.7765667.1229508-.2861036 0-.6130791.1639344-.8583107-.0409836-.0817438-.0819672-.1226158.0409836-.1226158.1229508-.0817438.1639344-.1634877.3688525-.4087193.2868852-.2043597-.0819672-.2043597-.2868852-.2452316-.409836 0 .0819672-.040872.204918-.040872.2868852-.2043596.2049181-.2452316.4098361-.4087193.6557377-.2043597.2049181-.5722071.1229508-.7765668.3278689-.0408719.4918033-.572207.3688524-.8583106.5327869 0 .0819672.0408719.0819672.0817439.1229508.1226158.0409836.3269755.0409836.4087193-.0819672.4087194.1229508.3269755-.4098361.5722071-.5737705.2043597-.0409836.4087194-.2049181.613079-.0819672.2452316.2459016.2861036.6557377.2452316.9836065-.2452316.2459017-.1226158.6147541-.2861035.9016394" mask="url(#b)"/><path d="m37.3568665 22.6640164c.3678474-.1229508.7765667.0409836 1.1444142.0409836 1.9209809.3278689 3.7602179.942623 5.3133515 2.1311475-.1634878-.1639344-.4087194-.409836-.4495913-.6967213.0408719-.0409836.0817438-.0409836.1226158-.0409836 0-.2868852-.3269755-.4508196-.3678474-.7377049.0408719-.0409836.1226158-.1229508.2043596-.0819672.3269755.3278688.6130791.6557377.8583107 1.0245902.2452316-.0819673.4087193.0409836.572207.1639344.2861036.1639344.1226159.5327869.3269755.7377049.040872.5737705.7356948.9016393.6948229 1.4754098 0 .1229509.2043597 0 .2452316.0819672l.5722071.737705c-.1226158.1229508-.0408719.3278688.0817439.409836.2861035.1229509.4087193-.204918.6948229-.1639344.4087193.204918-.040872.4508197 0 .6967213.1634877.0409836.3269754-.1229508.4495912.0409836.0817439.2049181-.1634877.3688525-.2452316.4918033 0 .204918.1634878.1639344.3269755.204918.2043597 0 .2861036.2049181.2452316.3688525.4904632.4918033-.1634877 1.0655738.0817439 1.5983607.1634877.3688524-.0408719.6967213-.2452316.9836065.0408719.4508197-.3678474.6967213-.5313352 1.0655738l-.4904632.0819672c-.2861035.2868852.2452316.6147541-.0408719.7786885h1.1035422l-.1226158-.1229508c-.1634877-.4098361-.1226158-1.0245902.1634878-1.3934426.1634877-.3688525.2043596-.8196722.5313351-1.1065574.0408719 0 .2043597-.1639344.2452316 0 .0408719.3278688 0 .7377049-.1634877 1.0245902.2861035.4508196.2452316 1.0245901.2861035 1.5983606.9809264-.0819672 1.9618529-.0819672 2.9019074-.0819672l-.0817439-.204918c-.1226158-1.8442623-.4904632-3.5655738-1.26703-5.1229508-.2043596 0-.3269754.1639344-.5722071.1229508-.0817438-.0409836-.1226158-.1229508-.1226158-.2049181-.4087193-.3688524-.6539509-.8606557-1.1035422-1.1885246-.4904632.0819673-.7356948-.5327868-1.1852861-.5737704-.3678474-.1639345-.1226158-.8196722-.6948229-.6557377-.2861035-.1229509-.5722071-.3278689-.613079-.6557378 0-.4918032-.1226158-1.0655737-.5722071-1.3934426-.3678474-.1229508-.4904632.3688525-.8583106.2868853-.2043597-.1229509-.1226158-.3688525-.1634878-.5327869-.0817438-.1639344-.2452316-.2459017-.2043596-.4508197.4904632-.6147541-.5722071-.5737705-.3269755-1.1885246-.0817439-.409836-.4904632-.6147541-.7356948-.9426229-1.5122616-.6967213-3.0653951-1.1885246-4.7820164-1.3934427-.4087193-.0819672-.8174387.0409837-1.2670299-.1639344l.0817438.2049181c0 .9016393.040872 1.8852459-.0408719 2.7459016" mask="url(#b)"/><path d="m39.931921 39.9591803c.2452316-.2463114.7765667-.204918.7765667-.5737705-.3678474-.0409836-.5313351.1639345-.7765667.2868853-.040872.0819672-.1226158.2454918 0 .2868852" mask="url(#b)"/><path d="m40.6266213 24.3441803c-1.0217984-.3278688-2.0844687-.4918033-3.1880109-.6557377l.0817438.2049181v2.6639344l.2452316-.0409836c1.6348774.204918 3.1062671.7377049 4.414169 1.8032787l.0817438.204918c.4495913-.6147541 1.1035423-1.1885246 1.6348774-1.7622951l.5313352-.2868852-.2452316-.0819672c-1.1035423-.9016394-2.2888284-1.5983607-3.5558583-2.0491804" mask="url(#b)"/><path d="m46.2670708 35.0409426.2861036.2868853c.2861035.204918.0817439.6557377.4087193.8196721.3678474.204918.5313352.6557377.6948229.9836066.040872-.0819673.040872-.2049181.0817439-.2868853.1226158-.5327869.1226158-1.147541.2861035-1.6803279-.613079.0409836-1.3079019.0819673-1.7574932-.1229508" mask="url(#b)"/><path d="m37.5205177 49.5490984c.7356948-.2459017 1.5940055-.2049181 2.3705722-.3278689-.1634877-.0405738-.3269755-.0819672-.4495913-.2454918-.4495912-.0413934-.6539509-.5331967-.8174387-.9020492-.0817438-.2459016.0817439-.4508196.2043597-.6967213-.2043597-.4098361-.8174387-.0819672-1.1852861-.2454918-.0817439-.082377-.1634877-.204918-.2861035-.2463115l.1634877.2049181c0 .8196721.0817439 1.6393442 0 2.4590164" mask="url(#b)"/><path d="m37.8474114 17.909877c.0817439-.1639344.2861036-.0819672.4087194-.0409836l1.4305177-.6147541c.5722071.0409837 1.226158.0819673 1.5531335.5737705v.0819672c-.3269755.2868853-.7765667.5327869-1.26703.3278689-.6539509.1229508-1.5531335.4918033-2.0844686-.1639344-.040872-.0409836-.0817439-.0819672-.040872-.1639345m8.5013624 1.7622951c.2043597.0819672.3678475.1639345.4495913.3688525-.0408719.2459016.2043597.4508197.040872.6147541-.5313352.1229508-.5722071-.4508197-.9809265-.6147541-.0817438-.0819672-.0817438-.1639344-.0817438-.2868853.1634877-.204918.3269754.1639345.572207-.0819672m-8.8692098-1.3114754c0-.0819672.040872-.1639344.0817439-.2459016.1634877-.0819672.2861035.0409836.3269755.1229508 0 .1229508.0817438.3688525-.040872.4508197.1226158 0 .1634878-.0819672.2861036-.0819672 2.2479564.1639344 4.3324251.8196721 6.212534 1.8852459v-.0409836c.3678475-.1639345.8583107-.4098361 1.26703-.0819673.4495913-.1639344.5722071.4098361.9400545.4918033.4904632.2868853 1.0217984.8196722 1.0626703 1.352459.0817439.1639345.3678474.2868853.4087194.4918033.2861035-.6557377.9400545-1.147541 1.4713896-1.7213115l.3269755-.1229508c-2.9836512-2.8278688-6.4986376-4.4262295-10.4632153-4.9590164-.6539509-.1229508-1.3487738-.0409836-1.9209809-.2868852.1226158.7786885.0817439 1.8852459.0408719 2.7459016" mask="url(#b)"/><path d="m47.942861 45.9834426c-.2861035.5331967-.8991825.9016394-1.3487738 1.3114754-.613079.6561476-1.6757493.7790984-2.0027248 1.7213115-.3269755.3278689-.4495913.8196721-.9400545.9840164-.2043597.4504098-.6948229.4504098-.9809264.7782787-.8583107.7377049-1.3896458-.4504098-2.1253406-.6147541l-1.5122616.2868852c-.5313352 0-1.0626703.1643443-1.5531335 0 .0817438 1.0245902.0817438 2.090164 0 3.1147541l.2043596-.1229508c4.7411445-.204918 8.8692099-2.0077869 12.3841962-5.204918l-2.0844686-2.0077869z" mask="url(#b)"/><path d="m48.5559401 23.5655328-.3269755.0819672c.2043597.0409836.2861035.2868852.4087193.4508197.7356948.409836.9400545 1.147541 1.5531335 1.5983606.3269755.7377049 1.1444142 1.3114754 1.1852861 2.1721312.8583107 1.8852459 1.4713897 3.8934426 1.5122616 6.147541l-.0817438.1229508c.0817438 0 .1634877-.0409836.2452316-.0819672l2.8610354-.0409836c-.2043597-.2868853-.1226158-.6967214-.1634878-1.0245902-.3678474-4.4262295-2.2479564-8.1967213-5.2316076-11.5573771-.5313351.737705-1.26703 1.4344263-1.9618528 2.1311476" mask="url(#b)"/><path d="m52.9291144 35.2048361-.1634877-.1229509.0817439.2868853c-.1634878 3.2786885-1.26703 6.1885246-3.147139 8.7704918-.3269755.4098361-.6948229.9836066-1.1444142 1.2704918.7765668.6147541 1.5940055 1.4754098 2.2070845 2.1721311l.0817439-.1639344c3.0245231-3.4426229 4.7411444-7.4586065 4.9455041-12.0901639l.1226158-.204918-.1634878.0819672z" mask="url(#b)"/></g></g></svg>